<?xml version="1.0" standalone="no"?><!DOCTYPE svg PUBLIC "-//W3C//DTD SVG 1.1//EN" "http://www.w3.org/Graphics/SVG/1.1/DTD/svg11.dtd"><svg t="1535615551441" class="icon" style="" viewBox="0 0 1024 1024" version="1.1" xmlns="http://www.w3.org/2000/svg" p-id="4627" xmlns:xlink="http://www.w3.org/1999/xlink" width="300" height="300"><defs><style type="text/css"></style></defs><path d="M789.4 20.2H235.8c-81.2 0-147.6 66.4-147.6 147.6v727c0 20.3 5.5 40.6 16.6 57.2 31.4 51.7 99.6 68.3 151.3 36.9L496 843.2c11.1-7.4 25.8-7.4 38.8 0l232.5 143.9c16.6 11.1 36.9 16.6 57.2 16.6 60.9 0 110.7-49.8 110.7-110.7V167.8C937 86.6 870.5 20.2 789.4 20.2zM863.2 893c0 20.3-16.6 36.9-36.9 36.9-7.4 0-12.9-1.8-18.5-5.5l-232.5-144c-35.1-22.1-79.3-22.1-114.4 0L221 926.2c-16.6 11.1-40.6 5.5-49.8-12.9-3.7-5.5-5.5-12.9-5.5-18.5v-727c0-40.6 33.2-73.8 73.8-73.8h553.6c40.6 0 73.8 33.2 73.8 73.8V893h-3.7z m0 0" p-id="4628" fill="#8a8a8a"></path><path d="M660.2 241.6H365c-20.3 0-36.9 16.6-36.9 36.9 0 20.3 16.6 36.9 36.9 36.9h295.2c20.3 0 36.9-16.6 36.9-36.9 0-20.3-16.6-36.9-36.9-36.9z m0 0M552.1 421.8H372.2c-20.3 0-36.9 16.6-36.9 36.9 0 20.3 16.6 36.9 36.9 36.9h179.9c20.3 0 36.9-16.6 36.9-36.9 0-20.3-16.6-36.9-36.9-36.9z m0 0" p-id="4629" fill="#8a8a8a"></path></svg>