<?xml version="1.0" standalone="no"?><!DOCTYPE svg PUBLIC "-//W3C//DTD SVG 1.1//EN" "http://www.w3.org/Graphics/SVG/1.1/DTD/svg11.dtd"><svg t="1535615731166" class="icon" style="" viewBox="0 0 1024 1024" version="1.1" xmlns="http://www.w3.org/2000/svg" p-id="5407" xmlns:xlink="http://www.w3.org/1999/xlink" width="300" height="300"><defs><style type="text/css"></style></defs><path d="M997.208812 511.66029c35.326958 41.77195 35.718957 81.948902 1.203998 120.498857l-373.361555 374.716553c-8.00999 6.414992-16.65398 11.022987-25.869969 13.853984-9.245989 2.799997-18.672978 3.794995-28.309966 3.011996-9.637989-0.813999-18.672978-2.830997-27.105968-6.023993-8.43299-3.221996-15.449982-7.649991-21.081975-13.250984-89.929893-89.959893-170.191797-170.703797-240.876713-242.171711l-89.115894-90.381893c-29.695965-28.911966-55.987933-55.023934-78.876906-78.303906-22.888973-23.310972-41.56195-42.16395-56.017933-56.649933l-22.858973-22.889972c-1.625998-1.595998-4.215995-4.999994-7.82999-10.239988-3.613996-5.209994-7.439991-12.045986-11.444987-20.479976-4.034995-8.43199-7.619991-17.858979-10.841987-28.309966C1.597998 444.59037 0.001 433.356384 0.001 421.310398v-21.684974c0-11.263987 0.211-25.29797 0.602999-42.16395 0.391-16.89498 0.812999-35.356958 1.203999-55.444934 0.392-20.088976 0.602999-40.567952 0.602999-61.439927 0.812999-48.999942 1.595998-103.209877 2.409997-162.661806a696.084171 696.084171 0 0 1 5.419994-28.911965c1.987998-9.637989 7.016992-18.883978 15.028982-27.707967C33.30996 13.252884 42.34595 7.830891 52.374938 5.030894 62.404926 2.199897 71.439915 0.813899 79.479905 0.813899h366.133564C447.210467 0.0009 452.84246-0.2091 462.449449 0.2119c9.636989 0.391 15.659981 1.414998 18.069979 3.011996 4.818994 1.595998 10.239988 4.396995 16.26298 8.43199 6.023993 4.005995 11.052987 8.01099 15.058982 12.046986L997.208812 511.66029zM226.96373 331.319505c29.213965 0 53.969936-10.209988 74.178911-30.569963 20.237976-20.357976 30.357964-45.264946 30.357964-74.689911 0-29.423965-10.119988-54.330935-30.357964-74.689911-20.208976-20.359976-44.964946-30.539964-74.178911-30.539964-29.243965 0-54.239935 10.179988-75.051911 30.539964-20.779975 20.388976-31.170963 45.265946-31.170963 74.689911 0 29.424965 10.389988 54.331935 31.170963 74.689911 20.810975 20.359976 45.807945 30.569964 75.051911 30.569963z" p-id="5408" fill="#707070"></path></svg>