<?xml version="1.0" standalone="no"?><!DOCTYPE svg PUBLIC "-//W3C//DTD SVG 1.1//EN" "http://www.w3.org/Graphics/SVG/1.1/DTD/svg11.dtd"><svg t="1535018358296" class="icon" style="" viewBox="0 0 1024 1024" version="1.1" xmlns="http://www.w3.org/2000/svg" p-id="4780" xmlns:xlink="http://www.w3.org/1999/xlink" width="80" height="80"><defs><style type="text/css"></style></defs><path d="M862.694709 864.882026c0 51.819203-42.010813 93.830015-93.830015 93.830015L252.62002 958.712041c-51.820226 0-93.831039-42.011836-93.831039-93.830015l0-624.544239c0-51.820226 42.010813-93.831039 93.831039-93.831039L768.864694 146.506748c51.820226 0 93.830015 42.011836 93.830015 93.831039L862.694709 864.882026zM808.548508 240.337787c0-21.917172-17.766642-39.684838-39.683814-39.684838L252.62002 200.652949c-21.917172 0-39.684838 17.766642-39.684838 39.684838l0 624.544239c0 21.917172 17.766642 39.682791 39.684838 39.682791L768.864694 904.564817c21.917172 0 39.683814-17.765619 39.683814-39.682791L808.548508 240.337787z" p-id="4781" fill="#bfbfbf"></path><path d="M707.313849 863.956957 485.280964 863.956957c-7.482415 0-13.536294-6.055926-13.536294-13.537318 0-7.482415 6.054903-13.537318 13.536294-13.537318l222.032886 0c21.363564 0 33.55114-25.592888 33.55114-65.197908l0-43.094494c0-7.482415 6.053879-13.537318 13.537318-13.537318 7.469112 0 13.537318 6.053879 13.537318 13.537318l0 43.094494C767.938602 827.734988 745.121943 863.956957 707.313849 863.956957z" p-id="4782" fill="#bfbfbf"></path><path d="M757.627768 673.761174c-3.517103 0-7.033184-1.360997-9.611915-3.925403-2.432399-2.446725-3.925403-5.961782-3.925403-9.611915 0-3.529383 1.493004-7.045463 3.925403-9.477862 5.15644-5.010107 14.078647-5.142114 19.22076-0.132006 2.446725 2.564405 3.927449 6.079462 3.927449 9.609869 0 3.518127-1.480724 7.033184-3.927449 9.611915C764.673232 672.400177 761.157151 673.761174 757.627768 673.761174z" p-id="4783" fill="#bfbfbf"></path><path d="M294.156018 295.41008c-14.950504 0-27.073612-12.122085-27.073612-27.073612L267.082406 92.360548c0-14.951527 12.122085-27.073612 27.073612-27.073612 14.951527 0 27.073612 12.122085 27.073612 27.073612l0 175.97592C321.22963 283.287995 309.106522 295.41008 294.156018 295.41008z" p-id="4784" fill="#bfbfbf"></path><path d="M443.05935 295.41008c-14.951527 0-27.073612-12.122085-27.073612-27.073612L415.985738 92.360548c0-14.951527 12.122085-27.073612 27.073612-27.073612 14.950504 0 27.073612 12.122085 27.073612 27.073612l0 175.97592C470.131939 283.287995 458.009853 295.41008 443.05935 295.41008z" p-id="4785" fill="#bfbfbf"></path><path d="M591.961658 295.41008c-14.951527 0-27.073612-12.122085-27.073612-27.073612L564.888046 92.360548c0-14.951527 12.122085-27.073612 27.073612-27.073612 14.950504 0 27.073612 12.122085 27.073612 27.073612l0 175.97592C619.03527 283.287995 606.913185 295.41008 591.961658 295.41008z" p-id="4786" fill="#bfbfbf"></path><path d="M740.86499 295.41008c-14.951527 0-27.073612-12.122085-27.073612-27.073612L713.791377 92.360548c0-14.951527 12.122085-27.073612 27.073612-27.073612s27.073612 12.122085 27.073612 27.073612l0 175.97592C767.938602 283.287995 755.81754 295.41008 740.86499 295.41008z" p-id="4787" fill="#bfbfbf"></path><path d="M837.233827 403.703505l-649.758504 0c-7.482415 0-13.537318-6.054903-13.537318-13.537318 0-7.482415 6.054903-13.536294 13.537318-13.536294l649.758504 0c7.469112 0 13.537318 6.054903 13.537318 13.536294C850.771145 397.648602 844.702939 403.703505 837.233827 403.703505z" p-id="4788" fill="#bfbfbf"></path></svg>