<?xml version="1.0" standalone="no"?><!DOCTYPE svg PUBLIC "-//W3C//DTD SVG 1.1//EN" "http://www.w3.org/Graphics/SVG/1.1/DTD/svg11.dtd"><svg t="1535018233729" class="icon" style="" viewBox="0 0 1592 1024" version="1.1" xmlns="http://www.w3.org/2000/svg" p-id="3251" xmlns:xlink="http://www.w3.org/1999/xlink" width="124.375" height="80"><defs><style type="text/css"></style></defs><path d="M97.735111 516.551111a1541.688889 1541.688889 0 0 0 189.212445 195.128889C456.590222 857.884444 636.017778 944.355556 815.331556 944.355556c178.403556 0 349.866667-85.788444 507.448888-230.968889a1370.339556 1370.339556 0 0 0 175.786667-196.949334 1143.239111 1143.239111 0 0 0-160.085333-199.907555C1188.750222 167.594667 1014.215111 79.644444 815.445333 79.644444c-199.68 0-382.293333 88.746667-544.199111 238.705778A1281.592889 1281.592889 0 0 0 97.848889 516.551111zM0 519.964444S307.086222 0 815.331556 0C1323.463111 0 1592.888889 519.964444 1592.888889 519.964444S1275.904 1024 815.331556 1024 0 519.964444 0 519.964444z" p-id="3252" fill="#bfbfbf"></path><path d="M796.444444 716.8a204.8 204.8 0 1 0 0-409.6 204.8 204.8 0 0 0 0 409.6zM796.444444 796.444444a284.444444 284.444444 0 1 1 0-568.888888 284.444444 284.444444 0 0 1 0 568.888888z" p-id="3253" fill="#bfbfbf"></path></svg>