<?xml version="1.0" standalone="no"?><!DOCTYPE svg PUBLIC "-//W3C//DTD SVG 1.1//EN" "http://www.w3.org/Graphics/SVG/1.1/DTD/svg11.dtd"><svg t="1535018759668" class="icon" style="" viewBox="0 0 1024 1024" version="1.1" xmlns="http://www.w3.org/2000/svg" p-id="15371" xmlns:xlink="http://www.w3.org/1999/xlink" width="80" height="80"><defs><style type="text/css"></style></defs><path d="M759.068584 618.102526l0 111.227244c0 13.176091-10.70276 23.87885-23.877827 23.87885L275.550265 753.208621c-13.162788 0-23.877827-10.70276-23.877827-23.87885L251.672438 269.679046c0-13.175067 10.715039-23.877827 23.877827-23.877827l455.908494 0 32.832779-41.436738c-8.90788-3.987824-18.701944-6.319939-29.100782-6.319939L275.550265 198.044542c-39.501666 0-71.633481 32.132838-71.633481 71.633481l0 459.650725c0 39.502689 32.132838 71.634504 71.633481 71.634504l459.640492 0c39.500643 0 71.633481-32.131815 71.633481-71.634504L806.824237 586.948993 759.068584 618.102526z" p-id="15372" fill="#bfbfbf"></path><path d="M457.118554 690.295755l111.275339-25.417903 256.339226-267.694855c0 0 4.989641-45.191248-33.112142-59.60247-27.9117-10.562567-41.389666 0-41.389666 0l-252.818029 255.196193L457.118554 690.295755z" p-id="15373" fill="#bfbfbf"></path></svg>