<?xml version="1.0" standalone="no"?><!DOCTYPE svg PUBLIC "-//W3C//DTD SVG 1.1//EN" "http://www.w3.org/Graphics/SVG/1.1/DTD/svg11.dtd"><svg t="1535018552611" class="icon" style="" viewBox="0 0 1024 1024" version="1.1" xmlns="http://www.w3.org/2000/svg" p-id="10935" xmlns:xlink="http://www.w3.org/1999/xlink" width="80" height="80"><defs><style type="text/css"></style></defs><path d="M896 512c0 211.7-172.3 384-384 384S128 723.7 128 512s172.3-384 384-384S896 300.3 896 512zM855.1 512c0-189.2-153.9-343.1-343.1-343.1S168.9 322.8 168.9 512 322.8 855.1 512 855.1 855.1 701.2 855.1 512z" p-id="10936" fill="#bfbfbf"></path><path d="M484.8 267l34.2 0 0 262.2-34.2 0 0-262.2Z" p-id="10937" fill="#bfbfbf"></path><path d="M509.00038 505.00942l185.40162 185.40162-24.18282 24.18282-185.40162-185.40162 24.18282-24.18282Z" p-id="10938" fill="#bfbfbf"></path></svg>