<?xml version="1.0" standalone="no"?><!DOCTYPE svg PUBLIC "-//W3C//DTD SVG 1.1//EN" "http://www.w3.org/Graphics/SVG/1.1/DTD/svg11.dtd"><svg t="1535018495305" class="icon" style="" viewBox="0 0 1024 1024" version="1.1" xmlns="http://www.w3.org/2000/svg" p-id="10196" xmlns:xlink="http://www.w3.org/1999/xlink" width="80" height="80"><defs><style type="text/css"></style></defs><path d="M146.8114 106.124827h730.37413c11.204157 0 21.339985 4.607939 28.712891 11.975729 7.362673 7.37393 11.975729 17.502594 11.975729 28.711868v730.377199c0 11.20825-4.613055 21.342031-11.975729 28.710845-7.372906 7.368813-17.507711 11.975729-28.712891 11.975728H146.8114c-11.20825 0-21.342031-4.606915-28.710844-11.975728-7.372906-7.36779-11.975729-17.502594-11.975729-28.710845V146.8114c0-11.20825 4.602822-21.337938 11.975729-28.711868 7.368813-7.36779 17.502594-11.974705 28.710844-11.974705z m730.37413 40.686573H146.8114v730.3772c0 0.152472 0 0 0 0h730.37413s0 0.152472 0 0c0.149402 0 0.149402 0 0 0V146.8114c0.150426 0 0.150426 0 0 0z m0 0z m-730.37413 0z m730.37413 730.3772z m-730.37413 0z" p-id="10197" fill="#bfbfbf"></path><path d="M126.543838 248.301683h771.060703v40.532054H126.543838zM622.466707 590.996011l-201.441516 120.98525a20.290075 20.290075 0 0 1-27.945413-6.907303c-1.99442-3.379974-2.91437-7.060799-2.760875-10.595291v-243.351961c0-11.20825 9.060335-20.270632 20.269609-20.270632 4.294808 0 8.442259 1.381461 11.822233 3.84046l201.441515 120.832778-10.440772 17.350122 10.440772-17.350122c9.669201 5.681385 12.737067 18.116577 7.055683 27.790894-2.146892 3.529376-5.067402 6.141872-8.441236 7.675805z m-191.613703 67.864508l143.247232-85.980062-143.247232-85.980061v171.960123z" p-id="10198" fill="#bfbfbf"></path><path d="M311.706631 120.100092l47.905984 142.022337-38.231666 12.742183-48.055386-142.022337zM507.164888 120.100092l48.052316 142.022337-38.380045 12.742183-48.058457-142.022337zM702.772547 120.100092l47.90189 142.022337-38.392325 12.742183-47.901891-142.022337z" p-id="10199" fill="#bfbfbf"></path></svg>