<?xml version="1.0" standalone="no"?><!DOCTYPE svg PUBLIC "-//W3C//DTD SVG 1.1//EN" "http://www.w3.org/Graphics/SVG/1.1/DTD/svg11.dtd"><svg t="1535018616984" class="icon" style="" viewBox="0 0 1024 1024" version="1.1" xmlns="http://www.w3.org/2000/svg" p-id="11730" xmlns:xlink="http://www.w3.org/1999/xlink" width="80" height="80"><defs><style type="text/css"></style></defs><path d="M900.736629 403.543869l-49.319266-5.192256c-5.340635-16.000416-11.837606-31.664164-19.401886-46.774303l31.223119-38.57762c20.054755-24.796756 16.870226-63.11855-7.252171-87.24504l-58.402131-58.393945c-13.05841-13.057387-30.876218-20.545942-48.886407-20.545942-14.343683 0-27.607778 4.596691-38.362726 13.295817l-38.571481 31.221072c-15.119349-7.570419-30.785144-14.071484-46.775326-19.410072l-5.196349-49.316196c-3.344165-31.719422-32.697703-56.56632-66.829058-56.56632l-82.572624 0c-34.131355 0-63.485917 24.846898-66.829058 56.56939l-5.188162 49.313126c-15.992229 5.339612-31.66007 11.838629-46.77942 19.407002l-38.58376-31.225165c-10.744715-8.694009-24.006763-13.288654-38.35454-13.288654-18.021445 0-35.8413 7.488555-48.88743 20.541849l-58.400085 58.390875c-24.128537 24.133653-27.309996 62.45954-7.245008 87.253226l31.222095 38.572504c-7.568373 15.115256-14.068414 30.780027-19.407002 46.77021l-49.330522 5.196349c-31.719422 3.343141-56.56632 32.694633-56.56632 66.820871l0 82.576717c0 34.135448 24.847921 63.488986 56.568367 66.825988l49.323359 5.191232c5.340635 15.996322 11.840676 31.66007 19.407002 46.771233l-31.222095 38.58069c-20.067035 24.792663-16.884552 63.114456 7.246031 87.244017l58.392922 58.392922c13.057387 13.05841 30.878265 20.546965 48.89357 20.546965 14.354939 0 27.620058-4.595668 38.363749-13.290701l38.575574-31.230282c15.108093 7.566326 30.773887 14.066367 46.775326 19.410072l5.197372 49.320289c3.343141 31.719422 32.69054 56.56632 66.813708 56.56632l82.58388 0c34.131355 0 63.485917-24.844851 66.830081-56.56325l5.191232-49.317219c16.000416-5.340635 31.667234-11.838629 46.780443-19.407002l38.558178 31.204699c10.743692 8.709359 24.01802 13.31219 38.386262 13.31219 18.008142 0 35.823903-7.486508 48.878221-20.540825l58.403155-58.399061c24.12649-24.127514 27.312042-62.447261 7.251148-87.244017l-31.223119-38.572504c7.574512-15.127536 14.074553-30.79333 19.408025-46.775326l49.304939-5.196349c31.730679-3.333932 56.585763-32.6844 56.585763-66.819848l0-82.581834C957.309088 436.238502 932.460144 406.887011 900.736629 403.543869zM926.609902 552.946574c0 18.634406-12.779048 34.574447-29.099758 36.289508l-69.432349 7.316639-2.945075 9.764388c-6.235005 20.673855-14.610766 40.863686-24.894993 60.007699l-4.830005 8.989745 43.961234 54.307883c10.313903 12.748349 8.076956 33.05279-5.095042 46.223764l-58.403155 58.399061c-7.341199 7.340175-17.244756 11.550057-27.170826 11.550057-7.251148 0-13.840216-2.234901-19.064194-6.468318l-54.30686-43.951001-8.989745 4.831029c-19.11229 10.270924-39.302121 18.646686-60.011792 24.894993l-9.763364 2.946099-7.310499 69.438489c-1.719154 16.307408-17.664312 29.080316-36.299741 29.080316l-82.58388 0c-18.627243 0-34.565237-12.774955-36.283368-29.085432l-7.316639-69.437465-9.760295-2.947122c-20.713764-6.253424-40.904619-14.631232-60.008722-24.90011l-8.991792-4.833075-54.317093 43.974537c-5.215792 4.221138-11.802814 6.452969-19.047822 6.452969-9.934257 0-19.841907-4.211928-27.185152-11.555174l-58.392922-58.392922c-13.171997-13.171997-15.407921-33.475416-5.089925-46.223764l43.961234-54.323233-4.831029-8.988722c-10.270924-19.111267-18.646686-39.298028-24.896017-60.002582l-2.947122-9.762341-69.445652-7.311523c-16.307408-1.715061-29.081339-17.657148-29.081339-36.294624l0-82.576717c0-18.631336 12.775978-34.571377 29.083385-36.290531l69.448722-7.315616 2.946099-9.761318c6.246261-20.693298 14.623046-40.882106 24.89704-60.003606l4.830005-8.990768-43.962258-54.311976c-10.317996-12.748349-8.081049-33.057907 5.089925-46.231951l58.402131-58.391898c7.335059-7.339152 17.240663-11.54801 27.177989-11.54801 7.239891 0 13.82589 2.231831 19.043728 6.453992l54.320163 43.959188 8.988722-4.827959c19.127639-10.273994 39.320541-18.650779 60.016909-24.89704l9.763364-2.947122 7.305383-69.433372c1.719154-16.309454 17.663288-29.084409 36.298717-29.084409l82.572624 0c18.635429 0 34.579563 12.775978 36.299741 29.084409l7.315616 69.434395 9.761318 2.946099c20.691251 6.245238 40.880059 14.623046 60.008722 24.90011l8.989745 4.830005 54.30686-43.959188c5.226025-4.227278 11.815093-6.461155 19.052938-6.461155 9.92914 0 19.836791 4.211928 27.181059 11.555174l58.401108 58.392922c13.167904 13.171997 15.404852 33.479509 5.092995 46.228881l-43.956118 54.311976 4.828982 8.989745c10.265808 19.108197 18.640546 39.298028 24.8909 60.008722l2.947122 9.762341 69.438489 7.310499c16.311501 1.719154 29.089525 17.659195 29.089525 36.290531L926.607856 552.946574z" p-id="11731" fill="#bfbfbf"></path><path d="M511.676635 361.255741c-82.934874 0-150.407592 67.469648-150.407592 150.401452 0 82.926688 67.472717 150.393265 150.407592 150.393265 82.928734 0 150.396335-67.466578 150.396335-150.393265C662.072971 428.725388 594.60537 361.255741 511.676635 361.255741zM511.676635 631.351272c-66.007343 0-119.708406-53.694923-119.708406-119.694079 0-66.004273 53.701063-119.702266 119.708406-119.702266 66.001203 0 119.697149 53.697993 119.697149 119.702266C631.373785 577.656349 577.677838 631.351272 511.676635 631.351272z" p-id="11732" fill="#bfbfbf"></path><path d="M511.676635 588.252685" p-id="11733" fill="#bfbfbf"></path></svg>