<?xml version="1.0" standalone="no"?><!DOCTYPE svg PUBLIC "-//W3C//DTD SVG 1.1//EN" "http://www.w3.org/Graphics/SVG/1.1/DTD/svg11.dtd"><svg t="1535019522300" class="icon" style="" viewBox="0 0 1024 1024" version="1.1" xmlns="http://www.w3.org/2000/svg" p-id="17783" xmlns:xlink="http://www.w3.org/1999/xlink" width="80" height="80"><defs><style type="text/css"></style></defs><path d="M892.235294 963.764706l-22.588235 22.588235c-11.294118 11.294118-33.882353 11.294118-48.941176 0l-128-143.058824c-60.235294 48.941176-143.058824 71.529412-210.823529 71.529412-199.529412 0-365.176471-165.647059-365.176471-365.176471s165.647059-365.176471 365.176471-365.176471 365.176471 165.647059 365.176471 365.176471c0 82.823529-22.588235 165.647059-82.823529 237.176471l128 128C907.294118 929.882353 907.294118 952.470588 892.235294 963.764706zM481.882353 282.352941c-154.352941 0-271.058824 116.705882-271.058824 271.058824s116.705882 271.058824 271.058824 271.058824S752.941176 707.764706 752.941176 553.411765 621.176471 282.352941 481.882353 282.352941z" p-id="17784" fill="#24a071"></path></svg>