<?xml version="1.0" standalone="no"?><!DOCTYPE svg PUBLIC "-//W3C//DTD SVG 1.1//EN" "http://www.w3.org/Graphics/SVG/1.1/DTD/svg11.dtd"><svg t="1535118721432" class="icon" style="" viewBox="0 0 1024 1024" version="1.1" xmlns="http://www.w3.org/2000/svg" p-id="45229" xmlns:xlink="http://www.w3.org/1999/xlink" width="80" height="80"><defs><style type="text/css"></style></defs><path d="M512 15.668c-277.216 0-501.96 224.745-501.96 501.96 0 277.217 224.744 501.962 501.96 501.962s501.96-224.745 501.96-501.961S789.217 15.669 512 15.669zM491.691 758.57c-1.395-0.551-2.555-1.213-3.831-1.984-91.729-57.55-206.095-48.38-254.165-41.09-12.074 1.765-22.871-7.843-22.871-20.328V348.887c0-9.279 6.036-17.453 14.743-19.88 31.47-8.95 61.075-12.372 88.363-12.153h-2.44 4.066v0.11c88.937 1.218 153.028 41.534 176.366 58.654l-0.23 382.952z m321.485-409.718v346.403c0 12.6-10.825 22.21-22.933 20.443-48.185-7.401-162.839-16.573-254.79 41.106-1.048 0.661-2.212 1.214-3.375 1.766l0.115-383.64c31.543-22.875 131.994-83.977 266.198-45.855 8.73 2.318 14.785 10.495 14.785 19.777z" p-id="45230" fill="#707070"></path></svg>