<?xml version="1.0" standalone="no"?><!DOCTYPE svg PUBLIC "-//W3C//DTD SVG 1.1//EN" "http://www.w3.org/Graphics/SVG/1.1/DTD/svg11.dtd"><svg t="1535118183291" class="icon" style="" viewBox="0 0 1024 1024" version="1.1" xmlns="http://www.w3.org/2000/svg" p-id="15684" xmlns:xlink="http://www.w3.org/1999/xlink" width="80" height="80"><defs><style type="text/css"></style></defs><path d="M523.460827 556.597567c-11.709976 0-22.174209 1.868613-31.268126 5.730414-7.10073 3.114355-13.454015 7.599027-18.686132 13.080292-5.605839 5.730414-10.215085 12.581995-13.578588 19.807299-4.484672 9.965937-6.602433 22.423358-6.602434 37.123114 0 23.046229 6.353285 41.109489 19.059854 54.314355 12.706569 13.204866 29.89781 19.682725 51.449149 19.682725 21.30219 0 38.244282-6.602433 51.075426-19.807299 12.706569-13.204866 19.059854-31.517275 19.059854-55.0618 0-23.544526-6.353285-41.981509-19.184429-55.186375-12.831144-13.080292-29.89781-19.682725-51.324574-19.682725z m28.901217 112.365937c-7.474453 8.471046-17.066667 12.706569-28.776643 12.706569s-21.30219-4.235523-28.901216-12.706569c-7.599027-8.59562-11.460827-20.928467-11.460827-37.372263 0-16.692944 3.612652-29.150365 11.087104-37.496837 7.349878-8.221898 17.066667-12.332847 29.150365-12.332847s21.800487 4.110949 28.901217 12.332847c7.349878 8.097324 10.96253 20.554745 10.96253 37.123114 0.249148 16.817518-3.488078 29.274939-10.96253 37.745986zM385.183455 602.56545h-50.203406v-50.950851h-34.133334V703.844282h34.133334v-68.017518h50.203406V703.844282h34.133333V551.614599h-34.133333z" p-id="15685" fill="#d6204b"></path><path d="M512 0C229.216545 0 0 229.216545 0 512s229.216545 512 512 512 512-229.216545 512-512S794.783455 0 512 0z m0 849.596107c-171.289538 0-310.189781-138.900243-310.189781-310.189781 0-54.065207 10.588808-98.413625 34.880779-142.63747-12.457421 73.498783 41.358637 96.794161 41.358637 96.794161s-20.679319-145.253528 66.647202-201.062774c-14.948905 87.201946 44.97129 149.364477 44.97129 149.364477S334.7309 235.694404 540.776642 174.403893c0 0-60.293917 225.23017 84.959611 225.23017 2.865207 0 5.979562-0.124574 9.093917-0.373722 70.882725-4.360097 47.836496-118.220925 19.309003-135.53674 99.783942 51.573723 167.926034 155.468613 168.050608 275.807299C822.189781 710.820438 683.289538 849.596107 512 849.596107z" p-id="15686" fill="#d6204b"></path><path d="M605.928954 585.623358H649.03163l0.124574 118.345498h29.399514l-0.249149-118.345498H721.284672l0.249148-34.008759h-115.355718z" p-id="15687" fill="#d6204b"></path></svg>