<?xml version="1.0" standalone="no"?><!DOCTYPE svg PUBLIC "-//W3C//DTD SVG 1.1//EN" "http://www.w3.org/Graphics/SVG/1.1/DTD/svg11.dtd"><svg t="1535118558265" class="icon" style="" viewBox="0 0 1024 1024" version="1.1" xmlns="http://www.w3.org/2000/svg" p-id="36015" xmlns:xlink="http://www.w3.org/1999/xlink" width="80" height="80"><defs><style type="text/css"></style></defs><path d="M546.944 495.744l-89.6-65.28a21.504 21.504 0 0 0-14.464-5.632 20.864 20.864 0 0 0-20.864 20.864 22.784 22.784 0 0 0 1.024 6.784l-1.024 0.768v124.672h1.024a24.192 24.192 0 0 0-1.024 6.784 20.992 20.992 0 0 0 35.328 15.36l89.6-65.152a20.992 20.992 0 0 0 0-39.552z" fill="#36ab60" p-id="36016"></path><path d="M512 0A513.536 513.536 0 0 0 0 512a513.536 513.536 0 0 0 512 512 513.536 513.536 0 0 0 512-512A513.536 513.536 0 0 0 512 0z m230.4 594.048a29.824 29.824 0 0 1 0 4.864 20.864 20.864 0 0 1-20.992 20.864 20.48 20.48 0 0 1-10.368-2.688h-0.768L651.52 588.8v73.344A41.856 41.856 0 0 1 609.664 704H323.456A41.984 41.984 0 0 1 281.6 662.144V361.856A41.984 41.984 0 0 1 323.456 320h286.208a41.984 41.984 0 0 1 41.856 41.856v80.256l58.624-29.312h0.896a21.888 21.888 0 0 1 10.368-2.688A20.992 20.992 0 0 1 742.4 431.744a31.36 31.36 0 0 1 0 4.864z" fill="#36ab60" p-id="36017"></path></svg>