<?xml version="1.0" standalone="no"?><!DOCTYPE svg PUBLIC "-//W3C//DTD SVG 1.1//EN" "http://www.w3.org/Graphics/SVG/1.1/DTD/svg11.dtd"><svg t="1535118649090" class="icon" style="" viewBox="0 0 1024 1024" version="1.1" xmlns="http://www.w3.org/2000/svg" p-id="41392" xmlns:xlink="http://www.w3.org/1999/xlink" width="80" height="80"><defs><style type="text/css"></style></defs><path d="M512 1024C229.239467 1024 0 794.760533 0 512 0 229.239467 229.239467 0 512 0c282.760533 0 512 229.239467 512 512 0 282.760533-229.239467 512-512 512z m63.3856-608.119467h-221.866667a31.505067 31.505067 0 0 0-31.675733 31.3344v223.607467c0 17.3056 14.165333 31.3344 31.675733 31.3344h221.866667a31.505067 31.505067 0 0 0 31.709867-31.3344v-223.607467a31.505067 31.505067 0 0 0-31.709867-31.3344z m95.095467-94.037333h-237.704534a15.7696 15.7696 0 0 0-15.872 15.6672c0 8.635733 7.099733 15.6672 15.872 15.6672h216.507734c14.779733 0 21.162667 6.485333 21.162666 21.777067v217.4976c0 8.669867 7.133867 15.701333 15.872 15.701333a15.7696 15.7696 0 0 0 15.837867-15.701333v-239.274667a31.505067 31.505067 0 0 0-31.675733-31.3344z" fill="#1296db" p-id="41393"></path></svg>