<?xml version="1.0" standalone="no"?><!DOCTYPE svg PUBLIC "-//W3C//DTD SVG 1.1//EN" "http://www.w3.org/Graphics/SVG/1.1/DTD/svg11.dtd"><svg t="1535118416372" class="icon" style="" viewBox="0 0 1024 1024" version="1.1" xmlns="http://www.w3.org/2000/svg" p-id="28801" xmlns:xlink="http://www.w3.org/1999/xlink" width="80" height="80"><defs><style type="text/css"></style></defs><path d="M512 0a512 512 0 1 0 0 1024A512 512 0 0 0 512 0z m174.153143 706.486857l-18.066286 18.066286a25.6 25.6 0 0 1-36.205714 0l-166.034286-166.034286C460.068571 552.813714 460.8 541.257143 460.8 529.92V204.8a25.6 25.6 0 0 1 25.6-25.6H512a25.6 25.6 0 0 1 25.6 25.6v316.928l148.553143 148.48a25.6 25.6 0 0 1 0 36.278857z" p-id="28802" fill="#efb336"></path></svg>