<?xml version="1.0" standalone="no"?><!DOCTYPE svg PUBLIC "-//W3C//DTD SVG 1.1//EN" "http://www.w3.org/Graphics/SVG/1.1/DTD/svg11.dtd"><svg t="1535028964042" class="icon" style="" viewBox="0 0 1024 1024" version="1.1" xmlns="http://www.w3.org/2000/svg" p-id="137581" xmlns:xlink="http://www.w3.org/1999/xlink" width="80" height="80"><defs><style type="text/css"></style></defs><path d="M419.081481 614.917172v63.26734h59.99192l202.041751-208.592593-61.543435-61.715825z" p-id="137582" fill="#db639b"></path><path d="M512 0C229.279461 0 0 229.279461 0 512s229.279461 512 512 512 512-229.279461 512-512S794.720539 0 512 0zM334.610101 724.902357h-73.438384c-12.929293 0-23.445118-10.515825-23.445118-23.445118s10.515825-23.445118 23.445118-23.445118h73.438384c12.929293 0 23.445118 10.515825 23.445118 23.445118 0 13.101684-10.515825 23.445118-23.445118 23.445118zM786.10101 389.947475c-0.344781 23.96229-9.309091 47.924579-26.892929 66.025589l-253.414142 261.688889c-4.482155 4.482155-10.515825 7.068013-16.721885 7.068013h-93.090909c-12.929293 0-23.272727-10.515825-23.445118-23.272727v-96.193939c0-6.03367 2.413468-11.894949 6.550842-16.204714L632.673401 327.197306c16.721886-17.583838 39.822222-27.754882 64.129293-28.272053 19.997306-0.344781 39.305051 5.688889 55.337373 17.239057 2.413468 1.206734 4.826936 2.93064 7.240404 5.344108l5.516499 5.688888c2.241077 2.413468 3.964983 4.999327 5.171717 7.412795 10.688215 15.859933 16.032323 34.305724 16.204714 52.923906v2.413468z" p-id="137583" fill="#db639b"></path><path d="M728.350168 357.020875s-0.172391 0 0 0c-18.10101-15.859933-44.993939-14.99798-62.060606 2.75825l-14.136027 14.653198 61.543435 61.543435 11.894949-12.412122c17.411448-17.92862 18.445791-47.235017 2.758249-66.542761z" p-id="137584" fill="#db639b"></path></svg>