<?xml version="1.0" standalone="no"?><!DOCTYPE svg PUBLIC "-//W3C//DTD SVG 1.1//EN" "http://www.w3.org/Graphics/SVG/1.1/DTD/svg11.dtd"><svg t="1535031236577" class="icon" style="" viewBox="0 0 1024 1024" version="1.1" xmlns="http://www.w3.org/2000/svg" p-id="155174" xmlns:xlink="http://www.w3.org/1999/xlink" width="80" height="80"><defs><style type="text/css"></style></defs><path d="M512 15.540706c272.323765 0 493.116235 222.268235 493.116235 496.459294 0 274.191059-220.762353 496.459294-493.116235 496.459294S18.883765 786.191059 18.883765 512C18.883765 237.808941 239.646118 15.540706 512 15.540706z" fill="#31BE9F" p-id="155175"></path><path d="M639.277176 263.890824c45.899294 2.680471 87.280941 25.419294 108.694589 75.956705 21.744941 51.350588 12.077176 99.087059-25.47953 139.896471-26.563765 28.822588-55.115294 55.868235-83.004235 83.456-12.107294 12.016941-31.533176 12.378353-42.014118 1.325176-10.631529-11.203765-9.456941-26.563765 3.282824-39.424 27.376941-27.557647 55.145412-54.753882 82.251294-82.55247 40.809412-41.893647 22.678588-108.544-33.701647-123.572706-23.461647-6.234353-45.989647-1.927529-63.819294 14.727529-28.702118 26.774588-55.717647 55.326118-84.299294 82.130824-6.053647 5.692235-16.082824 10.601412-23.94353 10.089412-21.022118-1.264941-31.653647-26.834824-17.106823-42.014118 31.262118-32.677647 63.186824-64.843294 96.737882-95.081412 20.449882-18.462118 47.073882-24.786824 82.401882-24.937411zM264.583529 632.621176c0.210824-35.237647 12.438588-65.686588 37.074824-90.804705 27.166118-27.768471 54.784-55.115294 82.341647-82.492236 13.101176-13.010824 29.184-14.004706 40.267294-2.831059 11.535059 11.655529 10.420706 26.352941-3.252706 40.116706-26.232471 26.383059-52.886588 52.464941-78.878117 79.149177-32.135529 32.948706-33.490824 77.402353-3.885177 107.248941 28.340706 28.581647 75.173647 28.702118 104.779294-0.210824 26.925176-26.322824 53.097412-53.398588 79.932236-79.751529 16.112941-15.811765 40.628706-10.179765 44.875294 11.113412 1.536 7.649882-1.536 19.184941-6.806589 24.756706-29.184 30.840471-58.307765 61.952-90.081882 89.901176-38.912 34.243765-84.510118 39.936-132.035765 19.184941-45.959529-20.058353-74.179765-65.295059-74.330353-115.380706z m355.960471-200.975058c-1.716706 3.192471-3.674353 10.119529-8.101647 14.637176a24175.525647 24175.525647 0 0 1-161.310118 162.725647c-11.474824 11.504941-27.798588 10.721882-38.610823-0.210823-10.872471-11.023059-10.571294-26.142118 1.536-38.339765 53.037176-53.308235 106.224941-106.496 159.382588-159.623529 8.613647-8.643765 18.733176-12.257882 30.509176-7.137883 10.480941 4.577882 15.811765 12.950588 16.594824 27.949177z m0 0" fill="#FFFFFF" p-id="155176"></path></svg>