<?xml version="1.0" standalone="no"?><!DOCTYPE svg PUBLIC "-//W3C//DTD SVG 1.1//EN" "http://www.w3.org/Graphics/SVG/1.1/DTD/svg11.dtd"><svg t="1535028076531" class="icon" style="" viewBox="0 0 1024 1024" version="1.1" xmlns="http://www.w3.org/2000/svg" p-id="133947" xmlns:xlink="http://www.w3.org/1999/xlink" width="80" height="80"><defs><style type="text/css"></style></defs><path d="M512 0C229.248 0 0 229.248 0 512s229.248 512 512 512 512-229.248 512-512S794.752 0 512 0z m-3.2 812.672c-36.032-1.024-64.32-25.92-63.168-63.616 1.152-37.696 30.848-61.76 66.88-60.736 37.632 1.088 65.088 26.752 63.936 64.448-1.152 37.696-30.016 60.992-67.648 59.904z m167.36-344.64c-9.6 13.12-31.296 29.888-58.496 50.368l-30.144 20.032c-14.592 10.944-27.584 23.68-32.384 38.336-2.496 7.744-4.096 14.528-4.672 27.968-0.128 2.624-1.856 8.704-10.304 8.704h-85.12c-9.472 0-10.496-5.376-10.432-8 1.344-36.8 2.688-62.4 17.792-79.488 26.048-29.504 85.44-66.24 85.44-66.24 9.088-6.528 16.384-13.696 21.888-21.504 10.048-13.376 18.432-28.096 18.432-44.16 0-18.496-5.632-35.328-16.832-50.496-11.2-15.296-31.68-22.912-61.376-22.912-29.248 0-49.92 9.344-62.144 28.096-8.384 12.864-13.888 25.984-16.512 39.488-0.896 17.152-6.208 18.88-17.28 18.88h-82.048c-7.296 0-9.088-4.352-10.752-16.96 6.144-60.416 30.848-103.872 74.112-130.432C425.152 241.28 461.76 232 505.152 232c57.024 0 104.448 13.12 142.208 39.424C685.12 297.664 704 336.576 704 388.16c0 31.616-11.52 58.24-27.84 79.872z" fill="#efb336" p-id="133948"></path></svg>