<?xml version="1.0" standalone="no"?><!DOCTYPE svg PUBLIC "-//W3C//DTD SVG 1.1//EN" "http://www.w3.org/Graphics/SVG/1.1/DTD/svg11.dtd"><svg t="1536820247481" class="icon" style="" viewBox="0 0 1024 1024" version="1.1" xmlns="http://www.w3.org/2000/svg" p-id="3556" xmlns:xlink="http://www.w3.org/1999/xlink" width="300" height="300"><defs><style type="text/css"></style></defs><path d="M52.736 23.04h918.016V936.96c0 71.168-30.72 89.088-93.184 54.272-98.304-54.784-197.12-108.032-294.4-164.864-48.64-28.672-92.16-28.16-140.8 0.512-97.28 57.856-197.632 111.104-296.448 166.4-62.976 34.816-92.672 17.408-93.184-53.76V51.2 23.04z m59.392 923.648c12.288-6.656 20.992-10.752 28.672-14.848 93.696-52.224 187.904-103.424 280.576-157.696 62.464-35.84 121.856-34.816 183.808 0.512 94.208 53.76 188.928 105.472 283.136 158.208 6.656 3.584 13.312 6.144 22.528 10.752V82.432H111.616c0.512 287.232 0.512 573.44 0.512 864.256z" p-id="3557" fill="#24a071"></path><path d="M794.624 263.168H234.496V208.896h560.128v54.272z" p-id="3558" fill="#24a071"></path></svg>