<?xml version="1.0" standalone="no"?><!DOCTYPE svg PUBLIC "-//W3C//DTD SVG 1.1//EN" "http://www.w3.org/Graphics/SVG/1.1/DTD/svg11.dtd"><svg t="1536821851163" class="icon" style="" viewBox="0 0 1024 1024" version="1.1" xmlns="http://www.w3.org/2000/svg" p-id="5117" xmlns:xlink="http://www.w3.org/1999/xlink" width="300" height="300"><defs><style type="text/css"></style></defs><path d="M512 1024C229.502876 1024 0.499512 794.995637 0.499512 512.499512 0.499512 230.002388 229.502876 0.999024 512 0.999024c282.497124 0 511.500488 229.003364 511.500488 511.500488C1023.500488 794.995637 794.497124 1024 512 1024zM511.977022 93.953249c-244.828909 0-418.477331 173.648421-418.477331 418.500308 0 244.806931 173.648421 418.500308 418.477331 418.500308 244.828909 0 418.522287-173.693378 418.522287-418.500308C930.499309 267.60167 756.805932 93.953249 511.977022 93.953249zM372.477253 279.953608l372.022697 232.499949L372.477253 744.954505C372.477253 736.144109 372.477253 313.465881 372.477253 279.953608z" p-id="5118" fill="#ffffff"></path></svg>