<?xml version="1.0" standalone="no"?><!DOCTYPE svg PUBLIC "-//W3C//DTD SVG 1.1//EN" "http://www.w3.org/Graphics/SVG/1.1/DTD/svg11.dtd"><svg t="1536984699445" class="icon" style="" viewBox="0 0 1024 1024" version="1.1" xmlns="http://www.w3.org/2000/svg" p-id="1829" xmlns:xlink="http://www.w3.org/1999/xlink" width="300" height="300"><defs><style type="text/css"></style></defs><path d="M354.4 287.8c-7.8 14.6-19.6 24-32 25.3l-184.1 26.7c-70.9 11.9-98.9 100.3-48.3 153L222.3 626c10.7 11.1 15.7 26 13.1 39.6l-32 188.9c-11.4 73.8 62.4 129.7 124.9 94.2L492 860.3c13.3-7.7 26.8-7.7 39.5-0.3l164.6 89c62.2 35.3 135.9-20.6 124.6-94.1l-32-188.8c-1.4-14.8 3.4-30.1 13.3-40.3L933.8 493c50.8-52.9 22.8-141.4-47.7-153.1l-183.7-26.7c-14.6-3.1-27.3-12.5-32.5-24.7l-81.3-173.6c-31.1-67.6-122.3-67.6-153.5 0.1l-80.7 172.8z" fill="#FFBC00" p-id="1830"></path></svg>