<?xml version="1.0" standalone="no"?><!DOCTYPE svg PUBLIC "-//W3C//DTD SVG 1.1//EN" "http://www.w3.org/Graphics/SVG/1.1/DTD/svg11.dtd"><svg t="1536651194618" class="icon" style="" viewBox="0 0 1024 1024" version="1.1" xmlns="http://www.w3.org/2000/svg" p-id="3555" xmlns:xlink="http://www.w3.org/1999/xlink" width="300" height="300"><defs><style type="text/css"></style></defs><path d="M110.933333 733.866667l-21.333333 200.533333 200.533333-21.333333L925.866667 277.333333c17.066667-17.066667 17.066667-42.666667 0-59.733333l-119.466667-119.466667c-8.533333-8.533333-21.333333-12.8-29.866667-12.8-12.8 0-21.333333 4.266667-29.866666 12.8L110.933333 733.866667z m196.266667 179.2z m-25.6 12.8zM866.133333 38.4l119.466667 119.466667c51.2 51.2 51.2 132.266667 0 179.2L341.333333 985.6c-8.533333 8.533333-17.066667 12.8-25.6 12.8l-268.8 25.6H42.666667c-25.6 0-42.666667-21.333333-42.666667-46.933333l25.6-268.8c0-8.533333 4.266667-21.333333 12.8-25.6L686.933333 38.4c21.333333-25.6 55.466667-38.4 89.6-38.4 29.866667 0 64 12.8 89.6 38.4zM554.666667 938.666667h384c25.6 0 42.666667 17.066667 42.666666 42.666666s-17.066667 42.666667-42.666666 42.666667h-384c-25.6 0-42.666667-17.066667-42.666667-42.666667s17.066667-42.666667 42.666667-42.666666z" p-id="3556" fill="#24a071"></path><path d="M627.2 204.8l209.066667 209.066667c17.066667 17.066667 17.066667 42.666667 0 59.733333-17.066667 17.066667-42.666667 17.066667-59.733334 0l-209.066666-209.066667c-17.066667-17.066667-17.066667-42.666667 0-59.733333 17.066667-17.066667 42.666667-17.066667 59.733333 0z" p-id="3557" fill="#24a071"></path></svg>