<?xml version="1.0" standalone="no"?><!DOCTYPE svg PUBLIC "-//W3C//DTD SVG 1.1//EN" "http://www.w3.org/Graphics/SVG/1.1/DTD/svg11.dtd"><svg t="1536136276375" class="icon" style="" viewBox="0 0 1059 1024" version="1.1" xmlns="http://www.w3.org/2000/svg" p-id="2210" xmlns:xlink="http://www.w3.org/1999/xlink" width="310.25390625" height="300"><defs><style type="text/css"></style></defs><path d="M516.465 0c-282.75 0-512 229.25-512 512s229.25 512 512 512 512-229.25 512-512-229.25-512-512-512z m-74 523.375c-0.25 0.75-0.5 1.125-0.75 1.875s-0.5 1.125-0.75 1.875-0.5 1.125-0.75 1.875-0.5 1.125-0.75 1.875-0.5 1.125-0.75 1.875-0.5 1.125-0.75 1.875-0.5 1.125-0.75 1.875-0.5 1.125-0.75 1.875-0.5 1.125-0.5 1.875c-0.25 0.75-0.5 1.125-0.5 1.875-0.25 0.75-0.5 1.125-0.5 1.875-0.25 0.75-0.25 1.125-0.5 1.875s-0.5 1.125-0.5 1.875c-0.25 0.75-0.25 1.125-0.5 1.875s-0.25 1.125-0.5 1.875-0.25 1.125-0.5 1.875-0.25 1.125-0.5 1.875-0.25 1.125-0.5 1.875-0.25 1.125-0.5 1.875-0.25 1.125-0.5 1.875-0.25 1.125-0.5 1.875c0 0.75-0.25 1.125-0.25 1.875s-0.25 1.125-0.25 1.875-0.25 1.125-0.25 1.875-0.25 1.125-0.25 1.875-0.25 1.125-0.25 1.875-0.25 1.125-0.25 1.875-0.25 1.125-0.25 1.875-0.25 1.125-0.25 1.875-0.25 1.125-0.25 1.875 0 1.125-0.25 1.875c0 0.75-0.25 1.125-0.25 1.875s0 1.125-0.25 1.875c0 0.75 0 1.125-0.25 1.875 0 0.75 0 1.125-0.25 1.875v22.5c0 0.75 0 1.125 0.25 1.875 0 0.75 0 1.125 0.25 1.875 0 0.75 0 1.125 0.25 1.875 0 0.75 0 1.125 0.25 1.875 0 0.75 0.25 1.125 0.25 1.875s0.25 1.125 0.25 1.875 0.25 1.125 0.25 1.875 0.25 1.125 0.25 1.875 0.25 1.125 0.25 1.875 0.25 1.125 0.25 1.875 0.25 1.125 0.25 1.875 0.25 1.125 0.25 1.875 0.25 1.125 0.25 1.875 0.25 1.125 0.5 1.875 0.25 1.125 0.5 1.875 0.25 1.125 0.5 1.875 0.25 1.125 0.5 1.875 0.25 1.125 0.5 1.875 0.25 1.125 0.5 1.875 0.25 1.125 0.5 1.875 0.25 1.125 0.5 1.875 0.25 1.125 0.5 1.875 0.25 1.125 0.5 1.875l0.25 0.875c-4.25 0.25-8.625 0.75-12.75 0.75-3.75 0.25-7.25 0.25-11 0.25-3.5 0-7 0-10.5-0.25-7.25-0.25-14-0.875-20.75-1.875-4.25-0.5-8.125-1.125-12.375-1.875-3.5-0.5-6.75-1.125-10.25-1.875-3-0.5-6.25-1.125-9.25-1.875s-5.875-1.125-8.875-1.875c-2.75-0.75-5.875-1.125-8.875-1.875-2.75-0.5-5.625-1.125-8.375-1.625l-3.25 1.625-3.75 1.875-4-1.375-3.75 1.875-3.75 1.875-3.75 1.875-3.75 1.875-3.75 1.875-3.75 1.875-3.75 1.875-3.75 1.875-2.75 1.375-3.75 1.875-3.75 1.875-3.75 1.875-3.75 1.875-3.75 1.875-3.75 1.875-3.75 1.875-3.75 1.875-3.75 1.875-3.75 1.875-3.75 1.875-3.75 1.875-2.5 1.375 0.5-1.375 0.75-1.875 0.75-1.875 0.75-1.875 0.75-1.875 0.75-1.875 0.75-1.875 0.75-1.875 0.75-1.875 0.75-1.875 0.75-1.875 0.75-1.875 0.75-1.875 0.75-1.875 0.75-1.875 0.75-1.875 0.75-1.875 0.75-1.875 0.75-1.875 0.75-1.875 0.75-1.875 0.75-1.875 0.75-1.875 0.75-1.875 0.75-1.875 0.75-1.875 0.75-1.875 0.75-1.875 0.75-1.875 0.75-1.875 0.75-1.875 0.75-1.875 0.75-1.875 0.75-1.875 0.75-1.875 0.75-1.875 0.75-1.875 0.75-1.875 0.75-1.875 0.75-1.875 0.75-1.875 0.75-1.875 0.5-1.125c-0.5-0.25-0.75-0.5-1.125-0.75-0.875-0.75-1.625-1.125-2.5-1.875s-1.625-1.125-2.5-1.875-1.625-1.125-2.5-1.875c-0.75-0.75-1.625-1.125-2.375-1.875s-1.625-1.125-2.375-1.875-1.625-1.125-2.375-1.875-1.625-1.125-2.375-1.875-1.375-1.125-2.375-1.875c-0.75-0.75-1.375-1.125-2.125-1.875s-1.375-1.125-2.125-1.875-1.375-1.125-2.125-1.875-1.375-1.125-2.125-1.875-1.375-1.125-2.125-1.875-1.375-1.125-2.125-1.875-1.375-1.125-1.875-1.875c-0.75-0.75-1.375-1.125-1.875-1.875l-1.875-1.875-1.875-1.875L219.84 570l-1.875-1.875c-0.75-0.75-1.125-1.125-1.625-1.875s-1.125-1.125-1.625-1.875-1.125-1.125-1.625-1.875-1.125-1.125-1.625-1.875-1.125-1.125-1.625-1.875-1.125-1.125-1.625-1.875-0.875-1.125-1.625-1.875c-0.5-0.75-0.875-1.125-1.625-1.875-0.5-0.75-0.875-1.125-1.375-1.875s-0.875-1.125-1.375-1.875-0.875-1.125-1.375-1.875-0.875-1.125-1.375-1.875-0.875-1.125-1.375-1.875-0.875-1.125-1.375-1.875-0.875-1.125-1.375-1.875-0.875-1.125-1.375-1.875-0.875-1.125-1.125-1.875c-0.5-0.75-0.875-1.125-1.125-1.875-0.5-0.75-0.75-1.125-1.125-1.875-0.5-0.75-0.75-1.125-1.125-1.875-0.5-0.75-0.75-1.125-1.125-1.875-0.5-0.75-0.75-1.125-1.125-1.875-0.5-0.75-0.75-1.125-1.125-1.875-0.5-0.75-0.75-1.125-1.125-1.875-0.25-0.75-0.75-1.125-0.875-1.875-0.25-0.75-0.75-1.125-0.875-1.875-0.25-0.75-0.75-1.125-0.875-1.875-0.25-0.75-0.75-1.125-0.875-1.875-0.25-0.75-0.75-1.125-0.875-1.875-0.25-0.75-0.75-1.125-0.875-1.875-0.25-0.75-0.75-1.125-0.875-1.875-0.25-0.75-0.5-1.125-0.875-1.875-0.25-0.75-0.5-1.125-0.875-1.875-0.25-0.75-0.5-1.125-0.875-1.875-0.25-0.75-0.5-1.125-0.75-1.875s-0.5-1.125-0.75-1.875-0.5-1.125-0.75-1.875-0.5-1.125-0.75-1.875-0.5-1.125-0.75-1.875-0.5-1.125-0.75-1.875-0.5-1.125-0.75-1.875-0.5-1.125-0.75-1.875-0.5-1.125-0.75-1.875-0.5-1.125-0.75-1.875-0.5-1.125-0.5-1.875c-0.25-0.75-0.5-1.125-0.5-1.875-0.25-0.75-0.5-1.125-0.5-1.875-0.25-0.75-0.25-1.125-0.5-1.875s-0.25-1.125-0.5-1.875-0.25-1.125-0.5-1.875-0.25-1.125-0.5-1.875-0.25-1.125-0.5-1.875-0.25-1.125-0.5-1.875-0.25-1.125-0.5-1.875-0.25-1.125-0.5-1.875-0.25-1.125-0.25-1.875-0.25-1.125-0.25-1.875-0.25-1.125-0.25-1.875-0.25-1.125-0.25-1.875-0.25-1.125-0.25-1.875-0.25-1.125-0.25-1.875-0.25-1.125-0.25-1.875-0.25-1.125-0.25-1.875-0.25-1.125-0.25-1.875 0-1.125-0.25-1.875c0-0.75 0-1.125-0.25-1.875 0-0.75 0-1.125-0.25-1.875 0-0.75 0-1.125-0.25-1.875v-24.25c0-0.75 0-1.125 0.25-1.875 0-0.75 0-1.125 0.25-1.875 0-0.75 0-1.125 0.25-1.875 0-0.75 0.25-1.125 0.25-1.875s0.25-1.125 0.25-1.875 0.25-1.125 0.25-1.875 0.25-1.125 0.25-1.875 0.25-1.125 0.25-1.875 0.25-1.125 0.25-1.875 0.25-1.125 0.25-1.875 0.25-1.125 0.25-1.875 0.25-1.125 0.25-1.875 0.25-1.125 0.5-1.875c0-0.75 0.25-1.125 0.5-1.875s0.25-1.125 0.5-1.875 0.25-1.125 0.5-1.875 0.25-1.125 0.5-1.875 0.25-1.125 0.5-1.875 0.25-1.125 0.5-1.875 0.25-1.125 0.5-1.875 0.25-1.125 0.5-1.875 0.25-1.125 0.5-1.875 0.25-1.125 0.5-1.875 0.5-1.125 0.5-1.875c0.25-0.75 0.5-1.125 0.5-1.875 0.25-0.75 0.5-1.125 0.5-1.875 0.25-0.75 0.5-1.125 0.75-1.875s0.5-1.125 0.75-1.875 0.5-1.125 0.75-1.875 0.5-1.125 0.75-1.875 0.5-1.125 0.75-1.875 0.5-1.125 0.75-1.875 0.5-1.125 0.75-1.875 0.5-1.125 0.75-1.875 0.5-1.125 0.75-1.875 0.5-1.125 0.75-1.875 0.5-1.125 0.75-1.875 0.5-1.125 0.875-1.875c0.25-0.75 0.5-1.125 0.875-1.875 0.25-0.75 0.5-1.125 0.875-1.875 0.25-0.75 0.75-1.125 0.875-1.875 0.25-0.75 0.75-1.125 0.875-1.875 0.25-0.75 0.75-1.125 0.875-1.875 0.25-0.75 0.75-1.125 0.875-1.875 0.25-0.75 0.75-1.125 0.875-1.875 0.25-0.75 0.75-1.125 0.875-1.875 0.25-0.75 0.75-1.125 1.125-1.875 0.5-0.75 0.75-1.125 1.125-1.875 0.5-0.75 0.75-1.125 1.125-1.875 0.5-0.75 0.75-1.125 1.125-1.875 0.5-0.75 0.75-1.125 1.125-1.875 0.5-0.75 0.75-1.125 1.125-1.875 0.5-0.75 0.75-1.125 1.125-1.875 0.5-0.75 0.875-1.125 1.125-1.875 0.5-0.75 0.875-1.125 1.125-1.875 0.5-0.75 0.875-1.125 1.125-1.875 0.5-0.75 0.875-1.125 1.375-1.875s0.875-1.125 1.375-1.875 0.875-1.125 1.375-1.875 0.875-1.125 1.375-1.875 0.875-1.125 1.375-1.875 0.875-1.125 1.375-1.875 0.875-1.125 1.375-1.875 0.875-1.125 1.625-1.875c0.5-0.75 0.875-1.125 1.625-1.875 0.5-0.75 1.125-1.125 1.625-1.875s1.125-1.125 1.625-1.875 1.125-1.125 1.625-1.875 1.125-1.125 1.625-1.875 1.125-1.125 1.625-1.875l1.875-1.875 1.875-1.875 1.875-1.875 1.875-1.875c0.75-0.75 1.375-1.125 1.875-1.875 0.75-0.75 1.375-1.125 2.125-1.875s1.375-1.125 2.125-1.875 1.375-1.125 2.125-1.875 1.375-1.125 2.125-1.875 1.375-1.125 2.125-1.875 1.375-1.125 2.375-1.875c0.75-0.75 1.625-1.125 2.375-1.875s1.625-1.125 2.375-1.875 1.625-1.125 2.375-1.875c0.875-0.75 1.625-1.125 2.5-1.875s1.625-1.125 2.5-1.875 1.875-1.125 2.5-1.875c0.875-0.75 1.875-1.125 2.75-1.875s1.875-1.125 2.75-1.875 1.875-1.125 2.75-1.875 1.875-1.125 3-1.875c0.875-0.75 2.125-1.125 3-1.875s2.125-1.125 3-1.875c1.125-0.75 2.125-1.125 3.25-1.875s2.375-1.125 3.25-1.875c1.125-0.75 2.375-1.125 3.5-1.875s2.375-1.125 3.75-1.875c1.125-0.75 2.5-1.125 3.75-1.875 1.375-0.75 2.5-1.125 4-1.875 1.375-0.75 2.75-1.125 4.25-1.875 1.375-0.75 2.75-1.125 4.25-1.875 1.375-0.75 3-1.125 4.375-1.875 1.625-0.75 3-1.125 4.625-1.875s3.25-1.125 4.875-1.875c1.875-0.75 3.5-1.125 5.375-1.875s3.75-1.125 5.625-1.875c2.125-0.75 4.25-1.125 6-1.875 2.375-0.75 4.375-1.125 6.75-1.875 2.5-0.75 4.875-1.125 7.5-1.875 2.75-0.75 5.625-1.125 8.625-1.875 3.5-0.75 6.75-1.125 10.25-1.875 4.375-0.75 8.875-1.375 13.25-1.875 11-1.125 22.125-1.875 33.25-1.875h2.5c11.125 0 22.375 0.75 33.5 1.875 4.375 0.5 8.875 1.125 13.25 1.875 3.5 0.5 7 1.125 10.25 1.875 2.75 0.5 5.875 1.125 8.625 1.875 2.5 0.5 5.125 1.125 7.625 1.875a53.19 53.19 0 0 1 6.75 1.875 51.59 51.59 0 0 1 6.25 1.875c1.875 0.75 4 1.125 5.875 1.875s3.75 1.125 5.375 1.875 3.5 1.125 5.125 1.875 3.25 1.125 4.875 1.875 3 1.125 4.625 1.875c1.375 0.75 3 1.125 4.375 1.875s2.75 1.125 4.25 1.875c1.375 0.75 2.75 1.125 4 1.875 1.375 0.75 2.5 1.125 3.75 1.875 1.125 0.75 2.5 1.125 3.75 1.875 1.125 0.75 2.375 1.125 3.5 1.875s2.375 1.125 3.5 1.875 2.375 1.125 3.25 1.875c1.125 0.75 2.125 1.125 3.25 1.875s2.125 1.125 3 1.875 2.125 1.125 3 1.875 1.875 1.125 3 1.875c0.875 0.75 1.875 1.125 2.75 1.875s1.875 1.125 2.75 1.875 1.875 1.125 2.75 1.875 1.875 1.125 2.5 1.875c0.875 0.75 1.625 1.125 2.5 1.875s1.625 1.125 2.5 1.875 1.625 1.125 2.375 1.875 1.625 1.125 2.375 1.875 1.625 1.125 2.375 1.875 1.375 1.125 2.375 1.875c0.75 0.75 1.375 1.125 2.375 1.875 0.75 0.75 1.375 1.125 2.125 1.875s1.375 1.125 2.125 1.875 1.375 1.125 2.125 1.875 1.375 1.125 2.125 1.875 1.375 1.125 1.875 1.875c0.75 0.75 1.375 1.125 1.875 1.875l1.875 1.875 1.875 1.875L615.84 287l1.875 1.875c0.75 0.75 1.125 1.125 1.625 1.875s1.125 1.125 1.625 1.875 1.125 1.125 1.625 1.875 1.125 1.125 1.625 1.875 1.125 1.125 1.625 1.875 0.875 1.125 1.625 1.875c0.5 0.75 0.875 1.125 1.625 1.875 0.5 0.75 0.875 1.125 1.375 1.875s0.875 1.125 1.375 1.875 0.875 1.125 1.375 1.875 0.875 1.125 1.375 1.875 0.875 1.125 1.375 1.875 0.875 1.125 1.375 1.875 0.875 1.125 1.375 1.875 0.875 1.125 1.125 1.875c0.5 0.75 0.875 1.125 1.125 1.875 0.5 0.75 0.875 1.125 1.125 1.875 0.5 0.75 0.75 1.125 1.125 1.875 0.5 0.75 0.75 1.125 1.125 1.875 0.5 0.75 0.75 1.125 1.125 1.875 0.5 0.75 0.75 1.125 1.125 1.875 0.5 0.75 0.75 1.125 1.125 1.875 0.5 0.75 0.75 1.125 1.125 1.875 0.5 0.75 0.75 1.125 0.875 1.875 0.25 0.75 0.75 1.125 0.875 1.875 0.25 0.75 0.75 1.125 0.875 1.875 0.25 0.75 0.75 1.125 0.875 1.875 0.25 0.75 0.75 1.125 0.875 1.875 0.25 0.75 0.75 1.125 0.875 1.875 0.25 0.75 0.75 1.125 0.875 1.875 0.25 0.75 0.75 1.125 0.875 1.875 0.25 0.75 0.5 1.125 0.875 1.875 0.25 0.75 0.5 1.125 0.875 1.875 0.25 0.75 0.5 1.125 0.75 1.875s0.5 1.125 0.75 1.875 0.5 1.125 0.75 1.875 0.5 1.125 0.75 1.875 0.5 1.125 0.75 1.875 0.5 1.125 0.75 1.875 0.5 1.125 0.75 1.875 0.5 1.125 0.75 1.875 0.5 1.125 0.75 1.875 0.5 1.125 0.75 1.875 0.5 1.125 0.75 1.875 0.5 1.125 0.5 1.875c0.25 0.75 0.5 1.125 0.5 1.875 0.25 0.75 0.25 1.125 0.5 1.875s0.5 1.125 0.5 1.875c0.25 0.75 0.25 1.125 0.5 1.875s0.25 1.125 0.5 1.875 0.25 1.125 0.5 1.875 0.25 1.125 0.5 1.875 0.25 1.125 0.5 1.875c0 0.5 0.25 0.75 0.25 1.125-4.625-0.5-9.25-0.875-14-1.125-3.5-0.25-7-0.25-10.75-0.25-4 0-8.125 0-12.125 0.25-6.75 0.25-13.25 0.875-19.5 1.875-3.75 0.5-7.625 1.125-11.375 1.875-3 0.5-5.875 1.125-8.875 1.875-2.5 0.5-5.125 1.125-7.5 1.875-2.125 0.5-4.375 1.125-6.5 1.875-1.875 0.5-4 1.125-5.875 1.875-1.875 0.5-3.5 1.125-5.375 1.875-1.625 0.75-3.25 1.125-4.875 1.875s-3 1.125-4.625 1.875c-1.375 0.75-3 1.125-4.375 1.875s-2.75 1.125-4.25 1.875c-1.375 0.75-2.5 1.125-4 1.875-1.125 0.75-2.5 1.125-3.75 1.875-1.125 0.75-2.375 1.125-3.5 1.875s-2.375 1.125-3.5 1.875-2.125 1.125-3.25 1.875c-0.875 0.75-2.125 1.125-3 1.875s-2.125 1.125-3 1.875-1.875 1.125-3 1.875c-0.875 0.75-1.875 1.125-2.75 1.875s-1.875 1.125-2.75 1.875-1.875 1.125-2.5 1.875c-0.875 0.75-1.625 1.125-2.5 1.875s-1.625 1.125-2.5 1.875c-0.75 0.75-1.625 1.125-2.375 1.875s-1.625 1.125-2.375 1.875-1.625 1.125-2.375 1.875-1.375 1.125-2.125 1.875-1.375 1.125-2.125 1.875-1.375 1.125-2.125 1.875-1.375 1.125-2.125 1.875-1.375 1.125-2.125 1.875-1.375 1.125-1.875 1.875L489.09 452l-1.875 1.875-1.875 1.875c-0.75 0.75-1.125 1.125-1.625 1.875s-1.125 1.125-1.625 1.875-1.125 1.125-1.625 1.875-1.125 1.125-1.625 1.875-1.125 1.125-1.625 1.875-0.875 1.125-1.625 1.875c-0.5 0.75-0.875 1.125-1.625 1.875-0.5 0.75-0.875 1.125-1.375 1.875s-0.875 1.125-1.375 1.875-0.875 1.125-1.375 1.875-0.875 1.125-1.375 1.875-0.875 1.125-1.375 1.875-0.875 1.125-1.375 1.875-0.875 1.125-1.125 1.875c-0.5 0.75-0.875 1.125-1.125 1.875-0.5 0.75-0.75 1.125-1.125 1.875-0.5 0.75-0.75 1.125-1.125 1.875-0.5 0.75-0.75 1.125-1.125 1.875-0.5 0.75-0.75 1.125-1.125 1.875-0.5 0.75-0.75 1.125-1.125 1.875-0.5 0.75-0.75 1.125-1.125 1.875-0.5 0.75-0.75 1.125-1.125 1.875-0.25 0.75-0.75 1.125-0.875 1.875-0.25 0.75-0.75 1.125-0.875 1.875-0.25 0.75-0.75 1.125-0.875 1.875-0.25 0.75-0.75 1.125-0.875 1.875-0.25 0.75-0.75 1.125-0.875 1.875-0.25 0.75-0.75 1.125-0.875 1.875-0.25 0.75-0.75 1.125-0.875 1.875-0.25 0.75-0.5 1.125-0.875 1.875-0.25 0.75-0.5 1.125-0.875 1.875-0.25 0.75-0.5 1.125-0.875 1.875-0.25 0.75-0.5 1.125-0.75 1.875-3.125 4.625-3.375 5.125-3.625 5.75z m433.625 71.25V606c0 0.5 0 0.875-0.25 1.625 0 0.5 0 0.875-0.25 1.625 0 0.5 0 0.875-0.25 1.625 0 0.5-0.25 0.875-0.25 1.625 0 0.5-0.25 0.875-0.25 1.625 0 0.5-0.25 0.875-0.25 1.625 0 0.5-0.25 0.875-0.25 1.625 0 0.5-0.25 0.875-0.25 1.625 0 0.5-0.25 0.875-0.25 1.625 0 0.5-0.25 0.875-0.25 1.625 0 0.5-0.25 0.875-0.25 1.625 0 0.5-0.25 0.875-0.25 1.625 0 0.5-0.25 0.875-0.5 1.625-0.25 0.5-0.25 0.875-0.5 1.625-0.25 0.5-0.25 0.875-0.5 1.625-0.25 0.5-0.25 0.875-0.5 1.625-0.25 0.5-0.25 0.875-0.5 1.625-0.25 0.5-0.25 0.875-0.5 1.625-0.25 0.5-0.25 0.875-0.5 1.625-0.25 0.5-0.25 0.875-0.5 1.625-0.25 0.5-0.25 0.875-0.5 1.625-0.25 0.5-0.25 0.875-0.5 1.625-0.25 0.5-0.5 0.875-0.5 1.625-0.25 0.5-0.5 0.875-0.5 1.625-0.25 0.5-0.5 0.875-0.5 1.625-0.25 0.5-0.5 0.875-0.75 1.625-0.25 0.5-0.5 0.875-0.75 1.625-0.25 0.5-0.5 0.875-0.75 1.625-0.25 0.5-0.5 0.875-0.75 1.625-0.25 0.5-0.5 0.875-0.75 1.625-0.25 0.5-0.5 0.875-0.75 1.625-0.25 0.5-0.5 0.875-0.75 1.625-0.25 0.5-0.5 0.875-0.75 1.625-0.25 0.5-0.5 0.875-0.75 1.625-0.25 0.5-0.5 0.875-0.75 1.625-0.25 0.5-0.5 0.875-0.75 1.625-0.25 0.5-0.5 0.875-0.875 1.625-0.25 0.5-0.5 0.875-0.875 1.625-0.25 0.5-0.5 0.875-0.875 1.625-0.25 0.5-0.5 0.875-0.875 1.625-0.25 0.5-0.75 0.875-0.875 1.625-0.25 0.5-0.75 0.875-0.875 1.625-0.25 0.5-0.75 0.875-0.875 1.625-0.25 0.5-0.75 0.875-0.875 1.625-0.25 0.5-0.75 0.875-0.875 1.625-0.25 0.5-0.75 0.875-0.875 1.625-0.25 0.5-0.75 0.875-0.875 1.625-0.25 0.5-0.75 0.875-0.875 1.625-0.5 0.5-0.75 0.875-1.125 1.625-0.5 0.5-0.75 0.875-1.125 1.625-0.5 0.5-0.75 0.875-1.125 1.625-0.5 0.5-0.75 0.875-1.125 1.625-0.5 0.5-0.75 0.875-1.125 1.625-0.5 0.5-0.75 0.875-1.125 1.625-0.5 0.5-0.75 0.875-1.125 1.625-0.5 0.5-0.75 0.875-1.125 1.625-0.5 0.5-0.75 0.875-1.125 1.625-0.5 0.5-0.875 0.875-1.125 1.625-0.5 0.5-0.875 0.875-1.125 1.625-0.5 0.5-0.875 0.875-1.375 1.625-0.5 0.5-0.875 0.875-1.375 1.625-0.5 0.5-0.875 0.875-1.375 1.625-0.5 0.5-0.875 0.875-1.375 1.625-0.5 0.5-0.875 0.875-1.375 1.625-0.5 0.5-0.875 0.875-1.375 1.625-0.5 0.5-0.875 0.875-1.375 1.625-0.5 0.5-0.875 0.875-1.375 1.625-0.5 0.5-0.875 0.875-1.375 1.625-0.5 0.5-0.875 0.875-1.375 1.625l-1.625 1.625-1.625 1.625c-0.5 0.5-1.125 0.875-1.625 1.625-0.5 0.5-1.125 0.875-1.625 1.625-0.5 0.5-1.125 0.875-1.625 1.625-0.5 0.5-1.125 0.875-1.625 1.625-0.5 0.5-1.125 0.875-1.625 1.625-0.5 0.5-1.125 0.875-1.625 1.625-0.5 0.5-1.125 0.875-1.625 1.625-0.75 0.5-1.125 0.875-1.875 1.625-0.75 0.5-1.125 0.875-1.875 1.625-0.75 0.5-1.125 0.875-1.875 1.625-0.75 0.5-1.125 0.875-1.875 1.625-0.75 0.5-1.125 0.875-1.875 1.625-0.75 0.5-1.125 0.875-1.875 1.625-0.75 0.5-1.375 0.875-1.875 1.625-0.75 0.5-1.375 0.875-1.875 1.625-0.75 0.5-1.375 0.875-2.125 1.625-0.75 0.5-1.375 0.875-2.125 1.625l-0.75 0.5 0.25 0.875 0.5 1.625 0.5 1.625 0.5 1.625 0.5 1.625 0.5 1.625 0.5 1.625 0.5 1.625 0.5 1.625 0.5 1.625 0.5 1.625 0.5 1.625 0.5 1.625 0.5 1.625 0.5 1.625 0.5 1.625 0.5 1.625 0.5 1.625 0.5 1.625 0.5 1.625 0.5 1.625 0.5 1.625 0.5 1.625 0.5 1.625 0.5 1.625 0.5 1.625 0.5 1.625 0.5 1.625 0.5 1.625 0.5 1.625 0.5 1.625 0.5 1.625 0.5 1.625 0.5 1.625 0.5 1.625 0.5 1.625 0.5 1.625 0.5 1.625 0.5 1.625 0.5 1.625 0.5 1.625 0.25 1.125-2.125-1.125-2.75-1.625-2.75-1.625-2.75-1.625-2.75-1.625-2.75-1.625-2.75-1.625-2.75-1.625-2.75-1.625-2.75-1.625-2.75-1.625-2.75-1.625-2.75-1.625-2.75-1.625-2.75-1.625-2.75-1.625-2.75-1.625-2.75-1.625-2.75-1.625-2.75-1.625-2.75-1.625-2.75-1.625-2.75-1.625-2.75-1.625-2.75-1.625-0.5-0.25-0.875 0.25c-2.125 0.5-4.25 0.875-6 1.625-2.125 0.5-4.25 0.875-6.25 1.625-2.125 0.5-4.25 0.875-6.5 1.625-2.375 0.5-4.375 0.875-6.75 1.625-2.375 0.5-4.875 1.125-7.25 1.625-2.75 0.5-5.375 1.125-8.125 1.625-3.25 0.5-6.5 1.125-9.75 1.625-5.375 0.75-10.75 1.125-15.875 1.625-2.75 0.25-5.875 0.25-8.625 0.25-3.75 0-7.5 0-11.125-0.25-6.5-0.25-12.75-0.75-19.125-1.625-3.75-0.5-7.5-0.875-11-1.625-2.75-0.5-5.875-0.875-8.625-1.625-2.375-0.5-4.875-0.875-7.25-1.625-2.125-0.5-4.25-0.875-6.25-1.625-1.875-0.5-3.75-0.875-5.625-1.625-1.875-0.5-3.5-0.875-5.125-1.625-1.625-0.5-3.25-0.875-4.875-1.625-1.375-0.5-3-0.875-4.375-1.625-1.375-0.5-2.75-0.875-4.25-1.625-1.375-0.5-2.5-0.875-4-1.625-1.125-0.5-2.5-0.875-3.75-1.625-1.125-0.5-2.375-0.875-3.75-1.625-1.125-0.5-2.375-0.875-3.5-1.625-1.125-0.5-2.125-0.875-3.25-1.625-1.125-0.5-2.125-0.875-3.25-1.625-0.875-0.5-2.125-0.875-3-1.625-0.875-0.5-1.875-0.875-3-1.625-0.875-0.5-1.875-0.875-2.75-1.625-0.875-0.5-1.875-0.875-2.75-1.625-0.875-0.5-1.875-0.875-2.5-1.625-0.875-0.5-1.625-0.875-2.5-1.625-0.875-0.5-1.625-0.875-2.5-1.625-0.75-0.5-1.625-0.875-2.375-1.625-0.75-0.5-1.625-0.875-2.375-1.625-0.75-0.5-1.625-0.875-2.375-1.625-0.75-0.5-1.375-0.875-2.375-1.625-0.75-0.5-1.375-0.875-2.125-1.625-0.75-0.5-1.375-0.875-2.125-1.625-0.75-0.5-1.375-0.875-2.125-1.625-0.75-0.5-1.375-0.875-2.125-1.625-0.75-0.5-1.375-0.875-1.875-1.625-0.75-0.5-1.375-0.875-1.875-1.625-0.75-0.5-1.125-0.875-1.875-1.625-0.75-0.5-1.125-0.875-1.875-1.625-0.75-0.5-1.125-0.875-1.875-1.625-0.75-0.5-1.125-0.875-1.875-1.625-0.5-0.5-1.125-0.875-1.625-1.625-0.5-0.5-1.125-0.875-1.625-1.625-0.5-0.5-1.125-0.875-1.625-1.625-0.5-0.5-1.125-0.875-1.625-1.625l-1.625-1.625-1.625-1.625c-0.5-0.5-0.875-0.875-1.375-1.625-0.5-0.5-0.875-0.875-1.375-1.625-0.5-0.5-0.875-0.875-1.375-1.625-0.5-0.5-0.875-0.875-1.375-1.625-0.5-0.5-0.875-0.875-1.375-1.625-0.5-0.5-0.875-0.875-1.375-1.625-0.5-0.5-0.875-0.875-1.375-1.625-0.5-0.5-0.875-0.875-1.125-1.625-0.5-0.5-0.875-0.875-1.125-1.625-0.5-0.5-0.875-0.875-1.125-1.625-0.5-0.5-0.75-0.875-1.125-1.625-0.5-0.5-0.75-0.875-1.125-1.625-0.5-0.5-0.75-0.875-1.125-1.625-0.5-0.5-0.75-0.875-1.125-1.625-0.5-0.5-0.75-0.875-1.125-1.625-0.5-0.5-0.75-0.875-1.125-1.625-0.5-0.5-0.75-0.875-1.125-1.625-0.25-0.5-0.75-0.875-0.875-1.625-0.25-0.5-0.75-0.875-0.875-1.625-0.25-0.5-0.75-0.875-0.875-1.625-0.25-0.5-0.75-0.875-0.875-1.625-0.25-0.5-0.75-0.875-0.875-1.625-0.25-0.5-0.75-0.875-0.875-1.625-0.25-0.5-0.75-0.875-0.875-1.625-0.25-0.5-0.75-0.875-0.875-1.625-0.25-0.5-0.5-0.875-0.875-1.625-0.25-0.5-0.5-0.875-0.875-1.625-0.25-0.5-0.5-0.875-0.75-1.625-0.25-0.5-0.5-0.875-0.75-1.625-0.25-0.5-0.5-0.875-0.75-1.625-0.25-0.5-0.5-0.875-0.75-1.625-0.25-0.5-0.5-0.875-0.75-1.625-0.25-0.5-0.5-0.875-0.75-1.625-0.25-0.5-0.5-0.875-0.75-1.625-0.25-0.5-0.5-0.875-0.75-1.625-0.25-0.5-0.5-0.875-0.75-1.625-0.25-0.5-0.5-0.875-0.75-1.625-0.25-0.5-0.5-0.875-0.75-1.625-0.25-0.5-0.5-0.875-0.75-1.625-0.25-0.5-0.5-0.875-0.5-1.625-0.25-0.5-0.5-0.875-0.5-1.625-0.25-0.5-0.5-0.875-0.5-1.625-0.25-0.5-0.5-0.875-0.5-1.625-0.25-0.5-0.5-0.875-0.5-1.625-0.25-0.5-0.25-0.875-0.5-1.625-0.25-0.5-0.25-0.875-0.5-1.625-0.25-0.5-0.25-0.875-0.5-1.625-0.25-0.5-0.25-0.875-0.5-1.625-0.25-0.5-0.25-0.875-0.5-1.625-0.25-0.5-0.25-0.875-0.5-1.625-0.25-0.5-0.25-0.875-0.5-1.625-0.25-0.5-0.25-0.875-0.5-1.625-0.25-0.5-0.25-0.875-0.5-1.625-0.25-0.5-0.25-0.875-0.25-1.625 0-0.5-0.25-0.875-0.25-1.625 0-0.5-0.25-0.875-0.25-1.625 0-0.5-0.25-0.875-0.25-1.625 0-0.5-0.25-0.875-0.25-1.625 0-0.5-0.25-0.875-0.25-1.625 0-0.5-0.25-0.875-0.25-1.625 0-0.5-0.25-0.875-0.25-1.625 0-0.5-0.25-0.875-0.25-1.625 0-0.5-0.25-0.875-0.25-1.625 0-0.5-0.25-0.875-0.25-1.625 0-0.5-0.25-0.875-0.25-1.625 0-0.5 0-0.875-0.25-1.625 0-0.5 0-0.875-0.25-1.625 0-0.5 0-0.875-0.25-1.625v-29c0-0.5 0-0.875 0.25-1.625 0-0.5 0-0.875 0.25-1.625 0-0.5 0-0.875 0.25-1.625 0-0.5 0.25-0.875 0.25-1.625 0-0.5 0.25-0.875 0.25-1.625 0-0.5 0.25-0.875 0.25-1.625 0-0.5 0.25-0.875 0.25-1.625 0-0.5 0.25-0.875 0.25-1.625 0-0.5 0.25-0.875 0.25-1.625 0-0.5 0.25-0.875 0.25-1.625 0-0.5 0.25-0.875 0.25-1.625 0-0.5 0.25-0.875 0.25-1.625 0-0.5 0.25-0.875 0.25-1.625 0-0.5 0.25-0.875 0.25-1.625 0-0.5 0.25-0.875 0.25-1.625 0.25-0.5 0.25-0.875 0.5-1.625 0.25-0.5 0.25-0.875 0.5-1.625 0.25-0.5 0.25-0.875 0.5-1.625 0.25-0.5 0.25-0.875 0.5-1.625 0.25-0.5 0.25-0.875 0.5-1.625 0.25-0.5 0.25-0.875 0.5-1.625 0.25-0.5 0.25-0.875 0.5-1.625 0.25-0.5 0.25-0.875 0.5-1.625 0.25-0.5 0.25-0.875 0.5-1.625 0.25-0.5 0.5-0.875 0.5-1.625 0.25-0.5 0.5-0.875 0.5-1.625 0.25-0.5 0.5-0.875 0.5-1.625 0.25-0.5 0.5-0.875 0.5-1.625 0.25-0.5 0.5-0.875 0.5-1.625 0.25-0.5 0.5-0.875 0.75-1.625 0.25-0.5 0.5-0.875 0.75-1.625 0.25-0.5 0.5-0.875 0.75-1.625 0.25-0.5 0.5-0.875 0.75-1.625 0.25-0.5 0.5-0.875 0.75-1.625 0.25-0.5 0.5-0.875 0.75-1.625 0.25-0.5 0.5-0.875 0.75-1.625 0.25-0.5 0.5-0.875 0.75-1.625 0.25-0.5 0.5-0.875 0.75-1.625 0.25-0.5 0.5-0.875 0.75-1.625 0.25-0.5 0.5-0.875 0.75-1.625 0.25-0.5 0.5-0.875 0.875-1.625 0.25-0.5 0.5-0.875 0.875-1.625 0.25-0.5 0.5-0.875 0.875-1.625 0.25-0.5 0.75-0.875 0.875-1.625 0.25-0.5 0.75-0.875 0.875-1.625 0.25-0.5 0.75-0.875 0.875-1.625 0.25-0.5 0.75-0.875 0.875-1.625 0.25-0.5 0.75-0.875 0.875-1.625 0.25-0.5 0.75-0.875 0.875-1.625 0.25-0.5 0.75-0.875 0.875-1.625 0.25-0.5 0.75-0.875 0.875-1.625 0.25-0.5 0.75-0.875 1.125-1.625 0.5-0.5 0.75-0.875 1.125-1.625 0.5-0.5 0.75-0.875 1.125-1.625 0.5-0.5 0.75-0.875 1.125-1.625 0.5-0.5 0.75-0.875 1.125-1.625 0.5-0.5 0.75-0.875 1.125-1.625 0.5-0.5 0.75-0.875 1.125-1.625 0.5-0.5 0.875-0.875 1.125-1.625 0.5-0.5 0.875-0.875 1.125-1.625 0.5-0.5 0.875-0.875 1.125-1.625 0.5-0.5 0.875-0.875 1.375-1.625 0.5-0.5 0.875-0.875 1.375-1.625 0.5-0.5 0.875-0.875 1.375-1.625 0.5-0.5 0.875-0.875 1.375-1.625 0.5-0.5 0.875-0.875 1.375-1.625 0.5-0.5 0.875-0.875 1.375-1.625 0.5-0.5 0.875-0.875 1.375-1.625l1.625-1.625 1.625-1.625c0.5-0.5 1.125-0.875 1.625-1.625 0.5-0.5 1.125-0.875 1.625-1.625 0.5-0.5 1.125-0.875 1.625-1.625 0.5-0.5 1.125-0.875 1.625-1.625 0.5-0.5 1.125-0.875 1.875-1.625 0.75-0.5 1.125-0.875 1.875-1.625 0.75-0.5 1.125-0.875 1.875-1.625 0.75-0.5 1.125-0.875 1.875-1.625 0.75-0.5 1.375-0.875 1.875-1.625 0.75-0.5 1.375-0.875 1.875-1.625 0.75-0.5 1.375-0.875 2.125-1.625 0.75-0.5 1.375-0.875 2.125-1.625 0.75-0.5 1.375-0.875 2.125-1.625 0.75-0.5 1.375-0.875 2.125-1.625 0.75-0.5 1.375-0.875 2.375-1.625 0.75-0.5 1.625-0.875 2.375-1.625 0.75-0.5 1.625-0.875 2.375-1.625 0.75-0.5 1.625-0.875 2.375-1.625 0.875-0.5 1.625-0.875 2.5-1.625 0.875-0.5 1.625-0.875 2.5-1.625 0.875-0.5 1.875-0.875 2.5-1.625 0.875-0.5 1.875-0.875 2.75-1.625 0.875-0.5 1.875-0.875 2.75-1.625 0.875-0.5 1.875-0.875 3-1.625 0.875-0.5 2.125-0.875 3-1.625 1.125-0.5 2.125-0.875 3.25-1.625 1.125-0.5 2.125-0.875 3.25-1.625 1.125-0.5 2.375-0.875 3.5-1.625 1.125-0.5 2.375-0.875 3.75-1.625 1.125-0.5 2.5-0.875 3.75-1.625 1.375-0.5 2.5-0.875 4-1.625 1.375-0.5 2.75-0.875 4.25-1.625 1.375-0.5 3-0.875 4.375-1.625 1.625-0.5 3.25-0.875 4.875-1.625 1.625-0.5 3.5-0.875 5.125-1.625 1.875-0.5 3.75-0.875 5.875-1.625 2.125-0.5 4.25-1.125 6.25-1.625 2.375-0.5 4.875-1.125 7.25-1.625 2.75-0.5 5.875-1.125 8.625-1.625 3.75-0.75 7.5-1.125 11.125-1.625 9.25-1.125 19.125-1.625 28.875-1.625h1.375c9.25 0 18.375 0.75 27.5 1.625 3.75 0.5 7.25 0.875 10.75 1.625 2.75 0.5 5.625 0.875 8.375 1.625 2.375 0.5 4.625 0.875 7 1.625 2.125 0.5 4.25 0.875 6.25 1.625 1.875 0.5 3.75 0.875 5.625 1.625 1.625 0.5 3.5 0.875 5.125 1.625 1.625 0.5 3.25 0.875 4.625 1.625 1.375 0.5 3 0.875 4.375 1.625 1.375 0.5 2.75 0.875 4.25 1.625 1.375 0.5 2.5 0.875 4 1.625 1.125 0.5 2.5 0.875 3.75 1.625 1.125 0.5 2.375 0.875 3.5 1.625 1.125 0.5 2.375 0.875 3.5 1.625 1.125 0.5 2.125 0.875 3.25 1.625 1.125 0.5 2.125 0.875 3.25 1.625 0.875 0.5 2.125 0.875 3 1.625 0.875 0.5 1.875 0.875 3 1.625 0.875 0.5 1.875 0.875 2.75 1.625 0.875 0.5 1.875 0.875 2.75 1.625 0.875 0.5 1.875 0.875 2.5 1.625 0.875 0.5 1.625 0.875 2.5 1.625 0.875 0.5 1.625 0.875 2.5 1.625 0.875 0.5 1.625 0.875 2.5 1.625 0.75 0.5 1.625 0.875 2.375 1.625 0.75 0.5 1.625 0.875 2.375 1.625 0.75 0.5 1.375 0.875 2.375 1.625 0.75 0.5 1.375 0.875 2.125 1.625 0.75 0.5 1.375 0.875 2.125 1.625 0.75 0.5 1.375 0.875 2.125 1.625 0.75 0.5 1.375 0.875 2.125 1.625 0.75 0.5 1.375 0.875 1.875 1.625 0.75 0.5 1.375 0.875 1.875 1.625 0.75 0.5 1.125 0.875 1.875 1.625 0.75 0.5 1.125 0.875 1.875 1.625 0.75 0.5 1.125 0.875 1.875 1.625 0.75 0.5 1.125 0.875 1.875 1.625 0.5 0.5 1.125 0.875 1.625 1.625 0.5 0.5 1.125 0.875 1.625 1.625 0.5 0.5 1.125 0.875 1.625 1.625 0.5 0.5 1.125 0.875 1.625 1.625 0.5 0.5 1.125 0.875 1.625 1.625l1.625 1.625 1.625 1.625c0.5 0.5 0.875 0.875 1.375 1.625 0.5 0.5 0.875 0.875 1.375 1.625 0.5 0.5 0.875 0.875 1.375 1.625 0.5 0.5 0.875 0.875 1.375 1.625 0.5 0.5 0.875 0.875 1.375 1.625 0.5 0.5 0.875 0.875 1.375 1.625 0.5 0.5 0.875 0.875 1.375 1.625 0.5 0.5 0.875 0.875 1.375 1.625 0.5 0.5 0.875 0.875 1.125 1.625 0.5 0.5 0.75 0.875 1.125 1.625 0.5 0.5 0.875 0.875 1.125 1.625 0.5 0.5 0.75 0.875 1.125 1.625 0.5 0.5 0.75 0.875 1.125 1.625 0.5 0.5 0.75 0.875 1.125 1.625 0.5 0.5 0.75 0.875 1.125 1.625 0.5 0.5 0.75 0.875 1.125 1.625 0.5 0.5 0.75 0.875 1.125 1.625 0.5 0.5 0.75 0.875 0.875 1.625 0.25 0.5 0.75 0.875 0.875 1.625 0.25 0.5 0.75 0.875 0.875 1.625 0.25 0.5 0.75 0.875 0.875 1.625 0.25 0.5 0.75 0.875 0.875 1.625 0.25 0.5 0.75 0.875 0.875 1.625 0.25 0.5 0.75 0.875 0.875 1.625 0.25 0.5 0.5 0.875 0.875 1.625 0.25 0.5 0.75 0.875 0.875 1.625 0.25 0.5 0.5 0.875 0.875 1.625 0.25 0.5 0.5 0.875 0.875 1.625 0.25 0.5 0.5 0.875 0.875 1.625 0.25 0.5 0.5 0.875 0.75 1.625 0.25 0.5 0.5 0.875 0.75 1.625 0.25 0.5 0.5 0.875 0.75 1.625 0.25 0.5 0.5 0.875 0.75 1.625 0.25 0.5 0.5 0.875 0.75 1.625 0.25 0.5 0.5 0.875 0.75 1.625 0.25 0.5 0.5 0.875 0.75 1.625 0.25 0.5 0.5 0.875 0.75 1.625 0.25 0.5 0.5 0.875 0.75 1.625 0.25 0.5 0.5 0.875 0.75 1.625 0.25 0.5 0.5 0.875 0.75 1.625 0.25 0.5 0.5 0.875 0.5 1.625 0.25 0.5 0.5 0.875 0.5 1.625 0.25 0.5 0.5 0.875 0.5 1.625 0.25 0.5 0.25 0.875 0.5 1.625 0.25 0.5 0.25 0.875 0.5 1.625 0.25 0.5 0.25 0.875 0.5 1.625 0.25 0.5 0.25 0.875 0.5 1.625 0.25 0.5 0.25 0.875 0.5 1.625 0.25 0.5 0.25 0.875 0.5 1.625 0.25 0.5 0.25 0.875 0.5 1.625 0.25 0.5 0.25 0.875 0.5 1.625 0.25 0.5 0.25 0.875 0.5 1.625 0.25 0.5 0.25 0.875 0.5 1.625 0.25 0.5 0.25 0.875 0.5 1.625 0.25 0.5 0.25 0.875 0.5 1.625 0 0.5 0.25 0.875 0.25 1.625 0 0.5 0.25 0.875 0.25 1.625 0 0.5 0.25 0.875 0.25 1.625 0 0.5 0.25 0.875 0.25 1.625 0 0.5 0.25 0.875 0.25 1.625 0 0.5 0.25 0.875 0.25 1.625 0 0.5 0.25 0.875 0.25 1.625 0 0.5 0.25 0.875 0.25 1.625 0 0.5 0.25 0.875 0.25 1.625 0 0.5 0 0.875 0.25 1.625 0 0.5 0 0.875 0.25 1.625 0 0.5 0 0.875 0.25 1.625 0 0.5 0 0.875 0.25 1.625 0 0.5 0 0.875 0.25 1.625v11.375h-3.125z" fill="#3BAF34" p-id="2211"></path><path d="M589.715 512c-12.625 0-25.375 12.75-25.375 25.375 0 12.75 12.75 25.375 25.375 25.375 19.375 0 31.875-12.625 31.875-25.375C621.465 524.75 608.84 512 589.715 512z m139.875 0c-12.625 0-25.375 12.75-25.375 25.375 0 12.75 12.75 25.375 25.375 25.375 19.125 0 31.875-12.625 31.875-25.375 0-12.625-12.75-25.375-31.875-25.375zM328.715 327.25c-19.125 0-38.375 12.625-38.375 31.625 0 19.125 19.375 31.875 38.375 31.875S360.59 378 360.59 358.875s-12.875-31.625-31.875-31.625z m178.25 0c-19.125 0-38.125 12.625-38.125 31.625 0 19.125 19.125 31.875 38.125 31.875 19.125 0 31.875-12.75 31.875-31.875s-12.875-31.625-31.875-31.625z" fill="#3BAF34" p-id="2212"></path></svg>