<?xml version="1.0" standalone="no"?><!DOCTYPE svg PUBLIC "-//W3C//DTD SVG 1.1//EN" "http://www.w3.org/Graphics/SVG/1.1/DTD/svg11.dtd"><svg t="1535025422893" class="icon" style="" viewBox="0 0 1024 1024" version="1.1" xmlns="http://www.w3.org/2000/svg" p-id="38270" xmlns:xlink="http://www.w3.org/1999/xlink" width="80" height="80"><defs><style type="text/css"></style></defs><path d="M883.712 316.37504H241.79712c-22.71232 0-41.12384 17.1008-41.12384 38.18496v377.99936c0 21.0944 18.41152 38.18496 41.12384 38.18496h164.48512l90.19392 83.75296c11.03872 10.0352 27.89376 10.0352 38.93248 0l90.19392-83.75296H883.712c22.71232 0 41.12384-17.1008 41.12384-38.18496V354.54976c-0.01024-21.08416-18.41152-38.17472-41.12384-38.17472z" fill="#A9DCFC" p-id="38271"></path><path d="M679.18848 501.20704c-15.13472 0-27.392-11.14112-27.392-24.89344V438.9888c0-13.74208 12.25728-24.89344 27.392-24.89344s27.392 11.14112 27.392 24.89344v37.33504c-0.01024 13.74208-12.26752 24.8832-27.392 24.8832z m-342.33344 0c-15.13472 0-27.392-11.14112-27.392-24.89344V438.9888c0-13.74208 12.25728-24.89344 27.392-24.89344s27.392 11.14112 27.392 24.89344v37.33504c-0.02048 13.74208-12.24704 24.8832-27.392 24.8832z m171.14112 0c-15.13472 0-27.392-11.14112-27.392-24.89344V438.9888c0-13.74208 12.25728-24.89344 27.392-24.89344s27.40224 11.15136 27.40224 24.89344v37.33504c0 13.74208-12.25728 24.8832-27.40224 24.8832zM344.6272 222.48448h-25.63072a30.0032 30.0032 0 0 1 0-60.0064h25.63072a30.0032 30.0032 0 0 1 0 60.0064z" fill="#0092FF" p-id="38272"></path><path d="M854.99904 161.08544H457.00096a30.0032 30.0032 0 0 0 0 60.0064h397.99808a69.92896 69.92896 0 0 1 69.84704 69.84704v361.27744a69.9392 69.9392 0 0 1-69.84704 69.85728H672.74752a29.93152 29.93152 0 0 0-21.26848 8.84736L544.3584 838.656c-7.80288 7.84384-19.2512 12.3392-31.41632 12.3392s-23.62368-4.49536-31.40608-12.3392l-23.20384-23.33696-82.95424-84.31616a29.8496 29.8496 0 0 0-21.38112-9.00096H170.9056a69.91872 69.91872 0 0 1-69.84704-69.84704V290.93888a69.91872 69.91872 0 0 1 69.84704-69.84704h27.7504a30.0032 30.0032 0 0 0 0-60.0064h-27.7504c-71.68 0.08192-129.76128 58.17344-129.85344 129.85344v361.27744c0.07168 71.68 58.1632 129.78176 129.85344 129.86368h170.51648l74.17856 75.37664 23.38816 23.54176c18.9952 19.08736 45.93664 30.0032 74.00448 30.0032s54.99904-10.99776 74.00448-30.0032l23.25504-23.38816 75.0592-75.48928h169.68704c71.69024-0.1024 129.78176-58.2144 129.83296-129.90464V290.93888c-0.08192-71.66976-58.1632-129.75104-129.83296-129.85344z" fill="#0092FF" p-id="38273"></path></svg>