<?xml version="1.0" standalone="no"?><!DOCTYPE svg PUBLIC "-//W3C//DTD SVG 1.1//EN" "http://www.w3.org/Graphics/SVG/1.1/DTD/svg11.dtd"><svg t="1535026258813" class="icon" style="" viewBox="0 0 1024 1024" version="1.1" xmlns="http://www.w3.org/2000/svg" p-id="63936" xmlns:xlink="http://www.w3.org/1999/xlink" width="80" height="80"><defs><style type="text/css"></style></defs><path d="M113.07675781249998 432.10302734375h197.74423828125v499.63271484375H113.07675781249998z" fill="#E1872F" p-id="63937"></path><path d="M921.190625 413.646875h-162.14941406250003v18.45615234375h-174.01464843750003v-29.002148437499997h10.54599609375v-29.661328124999997h7.91015625V218.53935546875h13.18271484375V102.52988281249998h-31.638867187499994v18.45615234375h-64.59697265624999v63.27773437499999h-15.160253906249997v17.13779296875h-30.979687499999994v45.8103515625h-9.22763671875v18.7857421875h-22.41123046875v32.95810546875h-19.77451171875v18.45615234375h-14.501074218749999V343.77734375H374.099609375v48.7775390625h-29.003027343750002v39.54814453125h-6.59091796875v485.131640625h431.08154296875v-21.0919921875h32.9572265625v-56.68681640625h43.50322265625V714.21787109375h27.68466796875v-69.86953125h11.86435546875v-50.09501953125h35.5939453125z" fill="#F1D6A9" p-id="63938"></path><path d="M945.508203125 428.62607421875c-15.3439453125-21.66240234375-41.61357421875-34.352929687499994-78.07412109375001-37.711230468749996H627.653515625l31.892871093749996-219.45234374999998c0.02900390625-0.16171875 3.22998046875-17.234472656250002-0.61787109375-36.631933593750006-5.005371093750001-25.231640625-19.128515625-42.476660156250006-41.97568359375-51.250781249999996l-0.4658203125-0.17666015625-0.42099609374999997-0.25927734375c-0.16611328125-0.0984375-17.74072265625-10.5697265625-39.6720703125-10.5697265625-21.839062499999997 0-40.40244140625 10.157519531250001-55.171582031250004 30.1974609375l-191.28515625 288.96064453125-149.17763671875002-0.00439453125c-3.0392578125000003 0-30.495410156250003 0.43154296875000003-57.76083984374999 15.294726562500001-34.9998046875 19.0828125-54.51943359375 52.84775390625-58.0201171875 100.34912109375v332.41728515625c0 0.2900390625 0.18544921875 29.396777343750003 14.588085937499999 57.926953125 18.99580078125 37.61806640625 52.788867187499996 56.69033203125001 100.43701171875 56.69033203125001l1.1953125000000002-0.00439453125 536.87197265625 0.8244140624999999c4.20029296875 0 103.25126953125-1.2999023437500001 137.03466796875-114.56455078124999l103.38837890625-330.49863281250003c0.6275390624999999-2.6244140625000005 10.895800781250001-47.80634765625-12.98583984375-81.53701171875001z m-765.6310546875001 478.7578125c-35.760937500000004-4.9473632812499995-51.78076171875-22.348828125-58.92275390625-36.073828125-7.3423828124999995-14.12314453125-6.97939453125-27.1916015625-6.87744140625-29.15859375V507.700390625l0.009667968749999999-0.14765625c1.7112304687500002-31.191503906249995 19.7296875-47.6560546875 34.538378906249996-55.98017578125 15.746484375000001-8.8435546875 30.96650390625-10.432617187499998 31.608984375000002-10.494140625l0.53876953125-0.0298828125h117.67236328124999v466.39072265625l-118.56796874999999-0.05537109375z m732.0568359375001-412.29140625l-0.1458984375 0.5572265625-105.42216796874999 336.7283203125c-10.8087890625 37.834277343749996-34.61396484375 56.562890624999994-52.68164062499999 65.62353515625001-19.564453125000004 9.798925781249999-36.515039062499994 10.61806640625-37.2251953125 10.645312500000001l-0.11337890625000001 0.0052734374999999995H348.9505859375V440.4447265625L552.0104492187501 147.84013671875c1.5591796875-2.5892578125 16.04443359375-25.8099609375 35.421679687499996-25.8099609375 3.71162109375 0 7.3634765625 0.8490234375 10.85361328125 2.51982421875 22.652050781249997 10.862402343749999 12.94541015625 48.34951171875 11.7404296875 52.68251953125l-42.09873046875 264.280078125 299.865234375 0.03076171875c16.5638671875 1.5486328125 28.834277343750003 7.548046875 36.48076171875 17.822460937499997 11.553222656249998 15.535546875 7.82314453125 34.906640625 7.660546874999999 35.72666015625z m0 0" fill="#CC352B" p-id="63939"></path></svg>