<?xml version="1.0" standalone="no"?><!DOCTYPE svg PUBLIC "-//W3C//DTD SVG 1.1//EN" "http://www.w3.org/Graphics/SVG/1.1/DTD/svg11.dtd"><svg t="1535026506087" class="icon" style="" viewBox="0 0 1398 1024" version="1.1" xmlns="http://www.w3.org/2000/svg" p-id="105874" xmlns:xlink="http://www.w3.org/1999/xlink" width="109.21875" height="80"><defs><style type="text/css"></style></defs><path d="M784.96997 651.69321L827.615794 979.228139c1.375672 7.503664-2.751343 20.760137-8.629214 25.387396-5.752809 4.252076-39.644358-3.126527-46.022472-6.628237l-163.454812-103.175378c-14.1319-7.753786-83.915975-42.020518-98.548119-34.266732L294.730596 972.975085l41.270151-250.997557c2.626282-16.633122-2.626282-33.516365-14.1319-45.77235L121.270899 472.10552c-5.127504-5.127504-7.00342-12.756229-4.62726-19.634587 2.251099-7.253542 7.753786-12.130923 14.882267-13.256473l277.13532-42.020518c16.383-2.501221 30.389839-13.131412 37.143136-28.2638l124.185638-262.753298c2.876404-6.503175 9.37958-10.755252 16.50806-10.755251 4.627259 0 92.044944 217.981436 92.044944 217.981436l26.888129 11.005374 67.658036 15.382511C780.342711 355.173425 992.82146 382.686859 1008.704216 385.18808l-25.262335 45.021984-78.413288 89.418661c-11.630679 11.630679-83.290669 74.411334-80.664387 91.419638L784.96997 651.69321z m0 0" fill="#F85441" p-id="105875"></path><path d="M1014.331964 441.215437c13.881778-14.256961 18.884221-35.017098 12.631167-53.901319-6.127992-19.259404-21.635564-33.016121-40.769907-36.017586l-283.01319-42.895946c-6.127992-1.000489-11.380557-5.002443-13.881778-10.755251L562.611397 29.514411C554.107244 11.255496 536.723756 0 517.339291 0c-19.509526 0-36.893014 11.255496-45.272105 29.514411L345.130205 297.770396c-2.501221 5.752809-7.878847 9.879824-14.256962 10.755251L47.985115 351.421593C28.725711 354.548119 13.218138 368.304836 7.090146 387.56424c-6.002931 19.259404-1.12555 39.89448 12.88129 53.901319l204.599902 208.101612c4.502198 4.627259 6.628236 11.255496 5.502687 17.633611l-48.398632 294.76893c-3.376649 20.00977 4.127015 39.89448 20.00977 51.775281 9.004397 6.878359 19.259404 10.255007 29.764534 10.255007 8.128969 0 16.007816-2.000977 23.636541-6.127992l252.998535-139.192965c5.627748-3.001466 12.381045-3.001466 17.883732 0l253.248656 139.192965c16.758183 9.37958 37.643381 7.878847 52.900831-3.876893 15.882755-12.130923 23.761602-32.015633 20.259892-51.775281l-48.523693-294.518808c-1.12555-6.378114 1.000489-13.006351 5.502687-17.63361l204.975086-208.851979zM767.586482 669.576942L814.984626 958.21788c1.375672 7.253542-1.500733 14.757206-7.503664 19.134343-5.627748 4.377137-13.256473 4.877382-19.259404 1.375671L540.225466 842.286273c-14.382022-7.753786-31.765511-7.753786-46.147533 0L246.081841 978.727894c-6.253053 3.50171-13.881778 3.001466-19.509526-1.375671-5.752809-4.377137-8.504152-11.75574-7.253541-18.884221l47.398143-288.89106c2.626282-16.633122-2.626282-33.516365-14.1319-45.77235L52.11213 419.704934c-5.127504-5.127504-7.00342-12.756229-4.62726-19.634587 2.251099-7.253542 7.753786-12.130923 14.882267-13.256473l277.13532-42.020518c16.383-2.501221 30.389839-13.131412 37.143136-28.263801L500.831231 53.776258c3.126527-6.753298 9.254519-10.755252 16.50806-10.755252 7.253542 0 13.381534 4.001954 16.508061 10.755252l123.935515 262.503175c7.253542 15.382511 21.13532 25.88764 37.143137 28.263801l277.13532 42.020518c7.253542 1.12555 12.631168 5.87787 14.882266 13.256473 2.37616 6.878359 0.625305 14.507084-4.627259 19.634587L781.718383 623.679531c-11.630679 11.630679-16.758183 28.889106-14.131901 45.897411z m0 0" fill="#333333" p-id="105876"></path></svg>