<?xml version="1.0" standalone="no"?><!DOCTYPE svg PUBLIC "-//W3C//DTD SVG 1.1//EN" "http://www.w3.org/Graphics/SVG/1.1/DTD/svg11.dtd"><svg t="1535026598865" class="icon" style="" viewBox="0 0 1024 1024" version="1.1" xmlns="http://www.w3.org/2000/svg" p-id="116447" xmlns:xlink="http://www.w3.org/1999/xlink" width="80" height="80"><defs><style type="text/css"></style></defs><path d="M168.125 519.875h-40.96875001c-12.1875 0-22.03125001-9.84375001-22.03124999-22.03125001v-64.87499998c0-12.1875 9.84375001-22.03125001 22.03124999-22.03125001h40.96875001v108.9375z" fill="#866E5A" p-id="116448"></path><path d="M191.9375 553.625h-30.1875c-13.875 0-25.03125001-11.25-25.03125001-25.03125001V402.3125c0-13.875 11.25-25.03125001 25.03125001-25.03125001h30.1875v176.34375001z" fill="#BC6C1D" p-id="116449"></path><path d="M900.5 882.96875001L471.78124999 638.9375V291.96874999L900.5 47.9375z" fill="#eeb173" p-id="116450"></path><path d="M900.5 47.9375h29.4375v835.03125001h-29.4375z" fill="#BC6C1D" p-id="116451"></path><path d="M375.125 981.78125001h-86.625l-46.21875001-428.15625001h179.15625001z" fill="#e98f36" p-id="116452"></path><path d="M471.78124999 638.9375H296.84374999c-57.9375 0-105-46.96875001-104.99999998-105V396.875c0-57.9375 46.96875001-105 105-105H471.6875v347.0625z" fill="#1A7FC0" p-id="116453"></path><path d="M331.8125 553.625v428.15625001H375.125l46.3125-428.15625001z" fill="#BC6C1D" p-id="116454"></path><path d="M471.78124999 638.9375H292.4375c-55.5 0-100.5-45-100.5-100.5V392.46874999c0-55.5 45-100.5 100.5-100.49999998h179.34375001v346.96874999z" fill="#eeb173" p-id="116455"></path><path d="M331.8125 291.96874999h139.96875001v347.06250002H331.8125z" fill="#cdcdcd" p-id="116456"></path></svg>