<?xml version="1.0" standalone="no"?><!DOCTYPE svg PUBLIC "-//W3C//DTD SVG 1.1//EN" "http://www.w3.org/Graphics/SVG/1.1/DTD/svg11.dtd"><svg t="1536820502422" class="icon" style="" viewBox="0 0 1024 1024" version="1.1" xmlns="http://www.w3.org/2000/svg" p-id="4342" xmlns:xlink="http://www.w3.org/1999/xlink" width="300" height="300"><defs><style type="text/css"></style></defs><path d="M776.533333 618.666667h4.266667zM780.8 618.666667c-51.2 0-98.133333 25.6-128 64l-251.733333-128c4.266667-12.8 4.266667-29.866667 4.266666-42.666667 0-17.066667-4.266667-34.133333-8.533333-46.933333L648.533333 341.333333c29.866667 38.4 76.8 68.266667 128 68.266667 89.6 0 162.133333-72.533333 162.133334-162.133333S866.133333 85.333333 776.533333 85.333333s-162.133333 72.533333-162.133333 162.133334v17.066666L354.133333 396.8c-29.866667-25.6-68.266667-42.666667-110.933333-42.666667C157.866667 354.133333 85.333333 422.4 85.333333 512s72.533333 162.133333 162.133334 162.133333c42.666667 0 85.333333-17.066667 115.2-46.933333l260.266666 132.266667v21.333333c0 89.6 72.533333 162.133333 162.133334 162.133333 89.6 0 162.133333-72.533333 162.133333-162.133333-8.533333-89.6-81.066667-162.133333-166.4-162.133333z" p-id="4343" fill="#24a071"></path></svg>