<?xml version="1.0" standalone="no"?><!DOCTYPE svg PUBLIC "-//W3C//DTD SVG 1.1//EN" "http://www.w3.org/Graphics/SVG/1.1/DTD/svg11.dtd"><svg t="1535014600294" class="icon" style="" viewBox="0 0 1024 1024" version="1.1" xmlns="http://www.w3.org/2000/svg" p-id="29054" xmlns:xlink="http://www.w3.org/1999/xlink" width="80" height="80"><defs><style type="text/css"></style></defs><path d="M511.00023 954.86134c-119.281687 0-231.432976-46.147016-315.76057-129.899512C110.896716 741.114165 64.469314 629.686353 64.485687 511.128143c0-118.54593 46.461171-229.990115 130.822534-313.806055C279.631722 113.537869 391.781988 67.388806 511.081071 67.388806c119.332852 0 231.466746 46.14804 315.829132 129.933281 174.125783 173.056428 174.108387 454.567963 0 627.559922C742.531444 908.679531 630.333082 954.86134 511.00023 954.86134L511.00023 954.86134 511.00023 954.86134 511.00023 954.86134 511.00023 954.86134zM511.081071 125.220956c-103.768365 0-201.273073 40.117696-274.639011 112.989377-73.362868 72.854285-113.759927 169.805384-113.759927 272.91781-0.017396 103.124705 40.36329 200.058408 113.695458 272.946462 73.345472 72.837912 170.888042 113.001657 274.622638 113.001657 103.784738 0 201.37438-40.197514 274.753621-113.085568 151.414525-150.441361 151.414525-395.284765 0-545.780361C712.392006 165.338652 614.848413 125.220956 511.081071 125.220956L511.081071 125.220956 511.081071 125.220956 511.081071 125.220956 511.081071 125.220956zM352.371396 632.234385c0 0 52.330856 83.107813 158.612461 83.107813 106.282628 0 175.984107-83.107813 175.984107-83.107813s39.507806-0.130983 39.491433 41.547255c0 0-68.50114 96.963379-215.47554 96.963379s-194.814987-96.963379-194.814987-96.963379S314.720891 632.234385 352.371396 632.234385L352.371396 632.234385 352.371396 632.234385 352.371396 632.234385zM381.215328 368.440373c-30.109762 0-54.695716 24.340361-54.695716 54.348816 0 29.976732 24.570605 54.31914 54.695716 54.31914 30.258141 0 54.69674-24.341385 54.69674-54.31914C435.912068 392.780735 411.472446 368.440373 381.215328 368.440373L381.215328 368.440373 381.215328 368.440373 381.215328 368.440373 381.215328 368.440373zM661.445684 368.440373c-30.159904 0-54.661947 24.340361-54.661947 54.348816 0 29.976732 24.502044 54.31914 54.661947 54.31914 30.224372 0 54.692646-24.341385 54.692646-54.31914C716.13833 392.780735 691.670056 368.440373 661.445684 368.440373L661.445684 368.440373 661.445684 368.440373 661.445684 368.440373 661.445684 368.440373zM661.445684 368.440373" p-id="29055" fill="#bfbfbf"></path></svg>