<?xml version="1.0" standalone="no"?><!DOCTYPE svg PUBLIC "-//W3C//DTD SVG 1.1//EN" "http://www.w3.org/Graphics/SVG/1.1/DTD/svg11.dtd"><svg t="1535187772705" class="icon" style="" viewBox="0 0 1024 1024" version="1.1" xmlns="http://www.w3.org/2000/svg" p-id="20779" xmlns:xlink="http://www.w3.org/1999/xlink" width="80" height="80"><defs><style type="text/css"></style></defs><path d="M511.09376 510.82752m-488.73984 0a488.73984 488.73984 0 1 0 977.47968 0 488.73984 488.73984 0 1 0-977.47968 0Z" fill="#7477FF" p-id="20780"></path><path d="M741.10976 282.12224H281.0368a42.97216 42.97216 0 0 0-42.96704 42.96704v309.71904a42.96192 42.96192 0 0 0 42.96704 42.96192h138.43968l91.58656 91.7504 91.61216-91.7504h138.43456a42.9568 42.9568 0 0 0 42.97216-42.96192V325.08416a42.9568 42.9568 0 0 0-42.97216-42.96192z" fill="#D3DDFF" p-id="20781"></path><path d="M745.60512 322.40128H276.56704v315.06944h142.03904l92.4672 92.66176 92.48256-92.66176h142.04928z" fill="#9ECAFD" p-id="20782"></path><path d="M483.88608 536.66816v-27.1872c-0.67072-7.38816 3.6864-16.11264 13.09184-26.18368l7.05024-7.05024c13.42976-15.44192 20.14208-26.84416 20.14208-34.24256 0-18.78528-10.4192-28.19584-31.22176-28.19584-8.05888 0-19.47648 2.01728-34.24256 6.0416v-26.17856c14.76096-4.02944 29.20448-5.69856 43.29984-5.03808 39.61344 2.01216 60.06784 17.11616 61.42976 45.312 0.65024 18.80064-11.07456 37.61152-35.24608 56.3968-10.07104 8.05888-15.45216 15.45216-16.10752 22.15424v24.1664h-28.19584z m-3.0208 41.29792v-34.23744h33.2288v34.23744h-33.2288z" fill="#7477FF" p-id="20783"></path></svg>