<?xml version="1.0" standalone="no"?><!DOCTYPE svg PUBLIC "-//W3C//DTD SVG 1.1//EN" "http://www.w3.org/Graphics/SVG/1.1/DTD/svg11.dtd"><svg t="1535524117302" class="icon" style="" viewBox="0 0 1024 1024" version="1.1" xmlns="http://www.w3.org/2000/svg" p-id="2489" xmlns:xlink="http://www.w3.org/1999/xlink" width="300" height="300"><defs><style type="text/css"></style></defs><path d="M665.6 413.013333h-307.2c-10.24 0-17.066667 6.826667-17.066667 17.066667s6.826667 17.066667 17.066667 17.066667h307.2c10.24 0 17.066667-6.826667 17.066667-17.066667s-6.826667-17.066667-17.066667-17.066667zM529.066667 535.893333h-170.666667c-10.24 0-17.066667 6.826667-17.066667 17.066667s6.826667 17.066667 17.066667 17.066667h170.666667c10.24 0 17.066667-6.826667 17.066666-17.066667s-6.826667-17.066667-17.066666-17.066667zM529.066667 658.773333h-170.666667c-10.24 0-17.066667 6.826667-17.066667 17.066667s6.826667 17.066667 17.066667 17.066667h170.666667c10.24 0 17.066667-6.826667 17.066666-17.066667 0-6.826667-6.826667-17.066667-17.066666-17.066667z" fill="#7cba59" p-id="2490"></path><path d="M512 0C228.693333 0 0 228.693333 0 512s228.693333 512 512 512 512-228.693333 512-512S795.306667 0 512 0z m238.933333 798.72c0 20.48-10.24 20.48-13.653333 20.48H324.266667c-30.72 0-51.2-20.48-51.2-54.613333V259.413333C273.066667 225.28 293.546667 204.8 324.266667 204.8h354.986666c10.24 0 20.48 10.24 20.48 20.48v64.853333h34.133334c10.24 0 20.48 10.24 20.48 20.48v488.106667z" fill="#7cba59" p-id="2491"></path><path d="M665.6 238.933333h-341.333333c-10.24 0-17.066667 6.826667-17.066667 27.306667 0 13.653333 6.826667 23.893333 17.066667 23.893333h341.333333V238.933333z" fill="#7cba59" p-id="2492"></path></svg>