<?xml version="1.0" standalone="no"?><!DOCTYPE svg PUBLIC "-//W3C//DTD SVG 1.1//EN" "http://www.w3.org/Graphics/SVG/1.1/DTD/svg11.dtd"><svg t="1535189581024" class="icon" style="" viewBox="0 0 1024 1024" version="1.1" xmlns="http://www.w3.org/2000/svg" p-id="59623" xmlns:xlink="http://www.w3.org/1999/xlink" width="300" height="300"><defs><style type="text/css"></style></defs><path d="M423.1 484.6c26.4 0 47.9-21.4 47.9-47.9 0-26.4-21.4-47.9-47.9-47.9-26.4 0-47.9 21.4-47.9 47.9s21.4 47.9 47.9 47.9zM634.7 566.7H385.9c-8.4 0-22.1 6.4-22.1 24.4 13.1 66.3 78.8 112.5 148.2 112.5 67 0 133-44.9 147.6-109.8 4.7-25-18.8-27.1-24.9-27.1zM600.9 484.6c26.4 0 47.9-21.4 47.9-47.9 0-26.4-21.4-47.9-47.9-47.9-26.4 0-47.9 21.4-47.9 47.9s21.5 47.9 47.9 47.9z" p-id="59624" fill="#efb336"></path><path d="M975.4 316.2c-25.3-59.9-61.6-113.7-107.8-159.9-46.2-46.2-100-82.4-159.9-107.8C645.7 22.4 579.9 9.1 512 9.1c-67.9 0-133.7 13.3-195.8 39.5-11.3 4.8-22.5 10-33.4 15.6-46.6 23.9-89.1 54.8-126.5 92.2-46.2 46.2-82.4 100-107.8 159.9C22.4 378.2 9.1 444.1 9.1 512c0 67.9 13.3 133.8 39.5 195.8 25.3 59.9 61.6 113.7 107.8 159.9 46.2 46.2 100 82.4 159.9 107.8 62 26.2 127.9 39.5 195.8 39.5s133.8-13.3 195.8-39.5c59.9-25.3 113.7-61.6 159.9-107.8s82.4-100 107.8-159.9c26.2-62 39.5-127.9 39.5-195.8-0.2-67.9-13.5-133.8-39.7-195.8zM543.8 811.3C378.4 828.9 230 709.3 212.4 544c-17.6-165.3 102.3-313.6 267.7-331.3C645.6 195.1 794 314.7 811.6 480c17.6 165.3-102.3 313.6-267.8 331.3z" p-id="59625" fill="#efb336"></path></svg>