<?xml version="1.0" standalone="no"?><!DOCTYPE svg PUBLIC "-//W3C//DTD SVG 1.1//EN" "http://www.w3.org/Graphics/SVG/1.1/DTD/svg11.dtd"><svg t="1535188313270" class="icon" style="" viewBox="0 0 1024 1024" version="1.1" xmlns="http://www.w3.org/2000/svg" p-id="49203" xmlns:xlink="http://www.w3.org/1999/xlink" width="80" height="80"><defs><style type="text/css"></style></defs><path d="M512.026407 0C229.245586 0 0 229.227982 0 511.991198c0 282.763216 229.245586 511.991198 512.026407 511.991198 282.763216 0 511.991198-229.227982 511.991197-511.991198C1024.017604 229.227982 794.772018 0 512.026407 0z m-170.270566 760.055977h-143.740609c-24.223769 0-43.940791-19.910671-43.940791-44.363299V403.195489a44.891433 44.891433 0 0 1 44.873829-44.768202h142.807571v401.62869z m302.180962-0.017605H380.168824l-0.035209-507.836539c0-24.54065 19.717022-44.48653 43.976-44.486531h175.815979c24.258978 0 43.958396 19.94588 43.958395 44.486531v221.658053h0.052814v286.178486z m226.04157-44.345694c0 24.452628-19.717022 44.363299-43.958396 44.363299h-143.687796V471.465676h142.737154a45.067478 45.067478 0 0 1 44.909038 45.102688v199.124314z" fill="#dd6572" p-id="49204"></path></svg>