<?xml version="1.0" standalone="no"?><!DOCTYPE svg PUBLIC "-//W3C//DTD SVG 1.1//EN" "http://www.w3.org/Graphics/SVG/1.1/DTD/svg11.dtd"><svg t="1536656254139" class="icon" style="" viewBox="0 0 1024 1024" version="1.1" xmlns="http://www.w3.org/2000/svg" p-id="14526" xmlns:xlink="http://www.w3.org/1999/xlink" width="300" height="300"><defs><style type="text/css"></style></defs><path d="M984.576 231.424c-27.136-27.648-59.392-39.936-96.256-39.936H769.536L742.4 118.784c-7.168-17.408-19.968-32.768-36.864-45.056-17.408-12.288-36.864-19.968-54.272-19.968H378.368c-19.968 0-36.864 7.68-54.272 19.968s-29.696 27.648-36.864 45.056l-29.696 72.704H136.192c-36.864 0-69.12 12.288-96.256 39.936S0 291.328 0 328.704V811.52c0 37.376 12.288 70.144 39.424 97.792 27.136 27.648 59.392 39.936 96.256 39.936h752.128c36.864 0 69.12-12.288 96.256-39.936 27.136-27.648 39.424-59.904 39.424-97.792V328.704c0.512-37.376-11.776-69.632-38.912-97.28zM512 789.504c-123.904 0-225.28-102.4-225.28-227.84 0-124.928 101.376-227.84 225.28-227.84s225.28 102.4 225.28 227.84S635.904 789.504 512 789.504z m0-344.064c-63.488 0-113.664 49.664-113.664 112.128S448.512 669.696 512 669.696s113.664-49.664 113.664-112.128S575.488 445.44 512 445.44z" fill="#ffffff" p-id="14527"></path></svg>