<?xml version="1.0" standalone="no"?><!DOCTYPE svg PUBLIC "-//W3C//DTD SVG 1.1//EN" "http://www.w3.org/Graphics/SVG/1.1/DTD/svg11.dtd"><svg t="1536721408963" class="icon" style="" viewBox="0 0 1025 1024" version="1.1" xmlns="http://www.w3.org/2000/svg" p-id="7957" xmlns:xlink="http://www.w3.org/1999/xlink" width="300.29296875" height="300"><defs><style type="text/css"></style></defs><path d="M906.1 128.9H117.9C52.8 128.9 0 181.7 0 246.8v530.4C0 842.3 52.8 895 117.9 895h788.3c65.1 0 117.9-52.8 117.9-117.8V246.8c-0.1-65.1-52.9-117.9-118-117.9z m-250.3 234h163.7c13 0 25 17.7 25 30.7s-12 30.7-25 30.7H655.8c-13 0-25-17.7-25-30.7s12-30.7 25-30.7z m0 131.2h163.7c13 0 25 17.7 25 30.7s-12 30.7-25 30.7H655.8c-13 0-25-17.7-25-30.7s12-30.7 25-30.7zM121.4 722.2c-12.8-2.5-21.2-14.8-18.7-27.6C117.9 615.2 177.2 554 252 532.5c-38.8-20.8-65.6-61.3-65.6-108.4 0-68.1 55.4-123.4 123.4-123.4s123.4 55.4 123.4 123.4c0 47.1-26.8 87.6-65.6 108.4 75 21.5 134.3 83 149.3 162.7 2.4 12.8-6 25.1-18.8 27.5-1.5 0.3-3 0.4-4.4 0.4m404.5-36.4H655.8c-13 0-25-17.7-25-30.7s12-30.7 25-30.7h242.4c13 0 25 17.7 25 30.7s-12 30.7-25 30.7z m0 0" p-id="7958"></path></svg>