<?xml version="1.0" standalone="no"?><!DOCTYPE svg PUBLIC "-//W3C//DTD SVG 1.1//EN" "http://www.w3.org/Graphics/SVG/1.1/DTD/svg11.dtd"><svg t="1536720873045" class="icon" style="" viewBox="0 0 1024 1024" version="1.1" xmlns="http://www.w3.org/2000/svg" p-id="1857" xmlns:xlink="http://www.w3.org/1999/xlink" width="300" height="300"><defs><style type="text/css"></style></defs><path d="M25.6 0v1024V0zM51.2 0v1024V0zM76.8 0v1024V0zM102.4 0v1024V0zM128 0v1024V0zM153.6 0v1024V0zM179.2 0v1024V0zM204.8 0v1024V0zM230.4 0v1024V0zM256 0v1024V0zM281.6 0v1024V0zM307.2 0v1024V0zM332.8 0v1024V0zM358.4 0v1024V0zM384 0v1024V0zM409.6 0v1024V0zM435.2 0v1024V0zM460.8 0v1024V0zM486.4 0v1024V0zM512 0v1024V0zM537.6 0v1024V0zM563.2 0v1024V0zM588.8 0v1024V0zM614.4 0v1024V0zM640 0v1024V0zM665.6 0v1024V0zM691.2 0v1024V0zM716.8 0v1024V0zM742.4 0v1024V0zM768 0v1024V0zM793.6 0v1024V0zM819.2 0v1024V0zM844.8 0v1024V0zM870.4 0v1024V0zM896 0v1024V0zM921.6 0v1024V0zM947.2 0v1024V0zM972.8 0v1024V0zM998.4 0v1024V0zM0 25.6h1024H0zM0 51.2h1024H0zM0 76.8h1024H0zM0 102.4h1024H0zM0 128h1024H0zM0 153.6h1024H0zM0 179.2h1024H0zM0 204.8h1024H0zM0 230.4h1024H0zM0 256h1024H0zM0 281.6h1024H0zM0 307.2h1024H0zM0 332.8h1024H0zM0 358.4h1024H0zM0 384h1024H0zM0 409.6h1024H0zM0 435.2h1024H0zM0 460.8h1024H0zM0 486.4h1024H0zM0 512h1024H0zM0 537.6h1024H0zM0 563.2h1024H0zM0 588.8h1024H0zM0 614.4h1024H0zM0 640h1024H0zM0 665.6h1024H0zM0 691.2h1024H0zM0 716.8h1024H0zM0 742.4h1024H0zM0 768h1024H0zM0 793.6h1024H0zM0 819.2h1024H0zM0 844.8h1024H0zM0 870.4h1024H0zM0 896h1024H0zM0 921.6h1024H0zM0 947.2h1024H0zM0 972.8h1024H0zM0 998.4h1024H0zM389.734 218.01c-18.79-17.664-44.185-17.664-63.027 0L0 512l326.707 293.939c18.842 17.715 44.237 17.715 63.027 0 18.791-17.715 18.791-46.387 0-64.102L136.09 512l253.696-229.786c18.739-17.715 18.739-46.438-0.052-64.204z m307.559 0c-18.842-17.664-44.186-17.664-63.027 0-18.791 17.766-17.818 46.438 1.075 64.153L887.91 512 635.29 741.837c-18.842 17.715-19.866 46.387-1.076 64.102 18.842 17.715 44.186 17.715 63.028 0L1024 512 697.293 218.01z" fill="" p-id="1858"></path></svg>