<?xml version="1.0" standalone="no"?><!DOCTYPE svg PUBLIC "-//W3C//DTD SVG 1.1//EN" "http://www.w3.org/Graphics/SVG/1.1/DTD/svg11.dtd"><svg t="1536722540372" class="icon" style="" viewBox="0 0 1365 1024" version="1.1" xmlns="http://www.w3.org/2000/svg" p-id="8124" xmlns:xlink="http://www.w3.org/1999/xlink" width="399.90234375" height="300"><defs><style type="text/css"></style></defs><path d="M1307.907413 322.164053v225.73056l47.88224 47.88224-99.191466 103.30112-100.543147-99.874133 68.4032-62.2592V358.427307C933.041493 478.8224 839.338667 515.754667 775.031467 545.1776c-64.989867 29.40928-111.506773 28.726613-175.117654 4.778667-64.3072-23.934293-369.390933-135.441067-521.243306-207.940267-101.922133-49.261227-108.079787-80.03584 1.365333-121.07776C222.999893 166.884693 458.99776 80.008533 584.185173 32.126293c73.864533-30.1056 113.554773-46.516907 181.275307-12.315306 121.07776 49.93024 398.800213 153.914027 536.9856 211.367253 119.016107 52.67456 38.2976 69.768533 5.461333 90.985813zM788.712107 634.088107c70.4512-29.40928 165.546667-77.29152 269.5168-121.760427v356.39296s-134.075733 142.964053-370.0736 142.964053c-253.78816 0-391.277227-142.964053-391.277227-142.964053v-333.141333c80.03584 32.836267 169.642667 60.893867 278.40512 97.826133 67.720533 24.630613 152.548693 32.836267 213.428907 0.682667z" fill="#000000" p-id="8125"></path></svg>