<?xml version="1.0" standalone="no"?><!DOCTYPE svg PUBLIC "-//W3C//DTD SVG 1.1//EN" "http://www.w3.org/Graphics/SVG/1.1/DTD/svg11.dtd"><svg t="1536657661911" class="icon" style="" viewBox="0 0 1024 1024" version="1.1" xmlns="http://www.w3.org/2000/svg" p-id="7895" xmlns:xlink="http://www.w3.org/1999/xlink" width="300" height="300"><defs><style type="text/css"></style></defs><path d="M765.734654 917.608795l-162.206474 0c-16.857963 0-30.536511-13.343926-30.536511-29.825312L572.991669 711.753151 451.237552 711.753151l0 176.030331c0 16.481386-13.657058 29.825312-30.515021 29.825312l-162.457184 0c-16.85694 0-30.516045-13.343926-30.516045-29.825312L227.749302 542.871644l-132.525448 0c-12.550863 0-23.844082-7.57145-28.424405-18.989512-4.581346-11.463087-1.527798-24.474439 7.697317-32.796996l416.777682-376.785812c11.712774-10.542111 29.762891-10.542111 41.476688 0l416.755169 376.785812c9.223068 8.322558 12.278663 21.333909 7.696294 32.796996-4.581346 11.417039-15.876612 18.989512-28.424405 18.989512l-132.525448 0 0 344.911839C796.251722 904.264869 782.592617 917.608795 765.734654 917.608795L765.734654 917.608795zM634.068783 857.954077 634.068783 857.954077" p-id="7896"></path></svg>