<?xml version="1.0" standalone="no"?><!DOCTYPE svg PUBLIC "-//W3C//DTD SVG 1.1//EN" "http://www.w3.org/Graphics/SVG/1.1/DTD/svg11.dtd"><svg t="1536721328963" class="icon" style="" viewBox="0 0 1024 1024" version="1.1" xmlns="http://www.w3.org/2000/svg" p-id="7232" xmlns:xlink="http://www.w3.org/1999/xlink" width="300" height="300"><defs><style type="text/css"></style></defs><path d="M629.888 226.816c-8.64 0-15.616-6.784-15.616-15.168 0-4.224 1.792-8 4.608-10.752 2.752-2.752 6.656-4.416 11.008-4.416l79.296 0c8.576 0 15.424 6.784 15.424 15.232 0 8.384-6.848 15.168-15.424 15.168L629.888 226.88zM432.768 96.768c-27.328 0-49.536 20.096-49.536 44.8l0 37.312L333.568 178.88 333.568 131.328C333.568 94.144 364.352 64 402.304 64l219.456 0c37.888 0 68.736 30.144 68.736 67.328l0 47.552-49.664 0L640.832 141.568c0-24.704-22.208-44.8-49.536-44.8L432.768 96.768zM391.36 226.816l-79.36 0c-8.448 0-15.488-6.784-15.488-15.168 0-4.224 1.792-8 4.608-10.752 2.752-2.752 6.656-4.416 10.88-4.416l79.36 0c8.576 0 15.488 6.784 15.488 15.232C406.848 220.032 399.936 226.816 391.36 226.816zM1024 536 0 536 0 307.648c0-37.184 30.784-67.264 68.736-67.264l220.096 0C300.48 252.672 316.8 260.352 335.168 260.352l353.664 0c18.368 0 34.752-7.744 46.208-20.032l220.224 0C993.28 240.384 1024 270.464 1024 307.648L1024 536zM769.856 623.36 769.856 582.72l-32.896 0 0 56.384c0 29.376 19.136 53.184 42.88 53.184l71.04 0c23.68 0 42.944-23.808 42.944-53.184L893.824 582.72l-32.896 0L860.928 623.36c0 17.088-11.2 30.912-24.96 30.912l-41.344 0C780.928 654.336 769.856 640.448 769.856 623.36zM68.736 960C30.784 960 0 929.856 0 892.672L0 563.008l1024 0 0 329.664C1024 929.856 993.28 960 955.328 960L68.736 960zM236.224 654.336c-13.824 0-24.96-13.888-24.96-30.912L211.264 582.72 178.432 582.72l0 56.384c0 29.376 19.264 53.184 42.88 53.184l71.04 0c23.744 0 42.944-23.808 42.944-53.184L335.296 582.72 302.464 582.72 302.464 623.36c0 17.088-11.072 30.912-24.896 30.912L236.224 654.272z" p-id="7233"></path></svg>